<svg width="144" height="144" viewBox="0 0 144 144" fill="none" xmlns="http://www.w3.org/2000/svg">
<path d="M39.375 102.094H47.8125V129.094H39.375V102.094Z" fill="#DBEFD4"/>
<path d="M91.4287 107.719H63.7726C63.325 107.719 62.8958 107.897 62.5794 108.213C62.2629 108.529 62.0851 108.959 62.0851 109.406C62.0851 109.854 62.2629 110.283 62.5794 110.599C62.8958 110.916 63.325 111.094 63.7726 111.094H89.7188V120.375H54.2812V111.094H56.5312C56.9788 111.094 57.408 110.916 57.7245 110.599C58.041 110.283 58.2188 109.854 58.2188 109.406C58.2188 108.959 58.041 108.529 57.7245 108.213C57.408 107.897 56.9788 107.719 56.5312 107.719H52.5712C51.6392 107.719 50.9062 108.601 50.9062 109.533V122.189C50.9062 123.121 51.6392 123.75 52.5712 123.75H91.4287C92.3608 123.75 93.0938 123.121 93.0938 122.189V109.533C93.0938 108.601 92.3608 107.719 91.4287 107.719Z" fill="#A3C3D0"/>
<path d="M45.8438 111.965C45.3962 111.965 44.967 112.143 44.6505 112.46C44.334 112.776 44.1562 113.205 44.1562 113.653V122.819C44.1562 123.266 44.334 123.696 44.6505 124.012C44.967 124.328 45.3962 124.506 45.8438 124.506C46.2913 124.506 46.7205 124.328 47.037 124.012C47.3535 123.696 47.5312 123.266 47.5312 122.819V113.653C47.5312 113.205 47.3535 112.776 47.037 112.46C46.7205 112.143 46.2913 111.965 45.8438 111.965Z" fill="#A3C3D0"/>
<path d="M45.8438 105.969C45.3962 105.969 44.967 106.147 44.6505 106.463C44.334 106.78 44.1562 107.209 44.1562 107.657V108.683C44.1562 109.131 44.334 109.56 44.6505 109.877C44.967 110.193 45.3962 110.371 45.8438 110.371C46.2913 110.371 46.7205 110.193 47.037 109.877C47.3535 109.56 47.5312 109.131 47.5312 108.683V107.657C47.5312 107.209 47.3535 106.78 47.037 106.463C46.7205 106.147 46.2913 105.969 45.8438 105.969Z" fill="#A3C3D0"/>
<path d="M103.284 23.6716L87.3844 20.8107L80.7261 6.09119C80.5963 5.80429 80.3889 5.55941 80.1272 5.38426C79.8655 5.20911 79.56 5.11067 79.2453 5.10008C78.9306 5.08948 78.6192 5.16716 78.3463 5.32432C78.0735 5.48148 77.85 5.71185 77.7013 5.98938L70.0684 20.2263L54.0107 22.0099C53.6978 22.0447 53.4008 22.1663 53.1533 22.361C52.9059 22.5557 52.7178 22.8158 52.6105 23.1118C52.5031 23.4078 52.4807 23.7279 52.5458 24.036C52.6109 24.3441 52.7609 24.6278 52.9788 24.8551L61.3806 33.6171C53.8844 42.9684 50.7924 54.4516 52.193 67.8225C53.266 78.0642 56.8052 87.4689 59.9867 94.2189H55.8619C53.7161 94.2375 51.6653 95.1068 50.1599 96.636C48.6544 98.1652 47.8172 100.229 47.8322 102.375H51.2072C51.2072 99.8439 53.2952 97.5939 55.8619 97.5939H88.1382C90.7049 97.5939 92.7929 99.8439 92.7929 102.375H96.1679C96.1828 100.229 95.3457 98.1652 93.8402 96.636C92.3348 95.1068 90.284 94.2375 88.1382 94.2189H82.858C78.4648 85.2189 72.184 68.9475 75.1467 53.166C77.0462 51.6233 79.0858 50.2617 81.2388 49.0988L91.8647 55.1572C92.1378 55.314 92.4494 55.3912 92.7641 55.3798C93.0787 55.3685 93.384 55.2692 93.6451 55.0931C93.9061 54.9171 94.1126 54.6713 94.2411 54.3838C94.3695 54.0963 94.4148 53.7786 94.3718 53.4666L92.1803 37.4598L104.122 26.5783C104.355 26.3662 104.523 26.0933 104.609 25.7903C104.694 25.4874 104.694 25.1665 104.607 24.864C104.519 24.5615 104.349 24.2894 104.116 24.0785C103.882 23.8676 103.594 23.7262 103.284 23.6704V23.6716ZM79.1157 94.2189H65.9447C64.2089 83.5314 64.2994 74.3728 66.226 67.3407C67.2989 63.4257 68.9381 60.0628 71.1943 57.1901C69.9607 71.5192 75.0409 85.5002 79.1157 94.2189ZM72.495 51.0051C67.8356 55.0315 64.7207 60.0895 62.9722 66.4713C61.1508 73.1176 60.8347 81.0443 62.0095 90.5666C59.2507 84.3119 56.4618 76.1897 55.5506 67.4934C54.2639 55.2112 57.0198 44.6528 63.7392 36.0761L64.161 36.5165L60.8952 52.3371C60.8318 52.6453 60.8558 52.9651 60.9645 53.2604C61.0733 53.5557 61.2624 53.8147 61.5106 54.0081C61.7588 54.2015 62.0561 54.3217 62.369 54.3551C62.6819 54.3885 62.9979 54.3338 63.2813 54.197L77.8275 47.1658L77.8419 47.1739C75.9524 48.2948 74.1632 49.5766 72.4942 51.0051H72.495ZM89.2525 35.5628C89.0504 35.7472 88.8962 35.9779 88.8031 36.235C88.7101 36.4922 88.6809 36.7681 88.7181 37.0391L90.5659 50.5391L78.7295 43.7967C78.4917 43.6612 78.2246 43.5856 77.9511 43.5763C77.6776 43.567 77.406 43.6244 77.1596 43.7435L64.8929 49.6723L67.6469 36.3312C67.7021 36.0633 67.6915 35.786 67.6158 35.5231C67.5401 35.2603 67.4016 35.0197 67.2123 34.8223L64.8583 32.367L57.7812 24.9867L71.3228 23.4826C71.5947 23.4524 71.8552 23.3565 72.0819 23.2033C72.3086 23.05 72.4946 22.8439 72.6238 22.6028L79.0594 10.5977L84.6732 23.0098C84.7859 23.2591 84.9576 23.4773 85.1734 23.6455C85.3893 23.8137 85.6428 23.9269 85.9121 23.9753L99.3207 26.3876L89.2525 35.5628Z" fill="#E05E0F"/>
<path d="M109.884 131.299L106.312 128.294V102.296C106.316 102.081 106.276 101.868 106.194 101.669C106.112 101.47 105.991 101.289 105.837 101.139C105.683 100.988 105.501 100.871 105.3 100.793C105.099 100.716 104.885 100.68 104.67 100.688H39.33C39.115 100.68 38.9007 100.716 38.7 100.793C38.4994 100.871 38.3166 100.988 38.1629 101.139C38.0092 101.289 37.8878 101.47 37.8061 101.669C37.7243 101.868 37.684 102.081 37.6875 102.296V128.294L34.1156 131.299C33.9229 131.454 33.7655 131.649 33.6539 131.87C33.5424 132.091 33.4793 132.334 33.4688 132.581V137.214C33.4826 137.672 33.6729 138.107 33.9999 138.428C34.327 138.749 34.7654 138.932 35.2237 138.938H108.776C109.235 138.932 109.673 138.749 110 138.428C110.327 138.107 110.517 137.672 110.531 137.214V132.581C110.521 132.334 110.458 132.091 110.346 131.87C110.235 131.649 110.077 131.454 109.884 131.299ZM41.0625 104.063H102.938V127.406H41.0625V104.063ZM107.156 135.563H36.8438V133.359L39.953 130.781H104.047L107.156 133.359V135.563Z" fill="#A3C3D0"/>
</svg>
