<svg width="80" height="81" viewBox="0 0 80 81" fill="none" xmlns="http://www.w3.org/2000/svg">
<path d="M12.5001 65.2707V9.4082H7.81262V65.2707C7.81262 68.7223 10.6017 71.5957 14.0532 71.5957H18.7407C15.2892 71.5957 12.5001 68.7223 12.5001 65.2707Z" fill="#DBEFD4"/>
<path d="M13.7501 23.7754C13.5015 23.7754 13.263 23.8742 13.0872 24.05C12.9114 24.2258 12.8126 24.4643 12.8126 24.7129V52.3379C12.8126 52.5865 12.9114 52.825 13.0872 53.0008C13.263 53.1766 13.5015 53.2754 13.7501 53.2754C13.9988 53.2754 14.2372 53.1766 14.413 53.0008C14.5888 52.825 14.6876 52.5865 14.6876 52.3379V24.7129C14.6876 24.4643 14.5888 24.2258 14.413 24.05C14.2372 23.8742 13.9988 23.7754 13.7501 23.7754Z" fill="#A3C3D0"/>
<path d="M13.7501 19.3613C13.5015 19.3613 13.263 19.4601 13.0872 19.6359C12.9114 19.8117 12.8126 20.0502 12.8126 20.2988V21.5426C12.8126 21.7912 12.9114 22.0297 13.0872 22.2055C13.263 22.3813 13.5015 22.4801 13.7501 22.4801C13.9988 22.4801 14.2372 22.3813 14.413 22.2055C14.5888 22.0297 14.6876 21.7912 14.6876 21.5426V20.2988C14.6876 20.0502 14.5888 19.8117 14.413 19.6359C14.2372 19.4601 13.9988 19.3613 13.7501 19.3613Z" fill="#A3C3D0"/>
<path d="M26.9185 20.8851C26.8411 20.729 26.7231 20.5965 26.5769 20.5017C26.4307 20.4068 26.2617 20.3529 26.0876 20.3457H24.0626V9.56445H22.1876V20.3457H20.1313C19.952 20.3529 19.7781 20.4097 19.6291 20.5097C19.48 20.6097 19.3615 20.749 19.2868 20.9123L17.272 25.131C17.2134 25.2648 17.1846 25.4098 17.1876 25.5559V36.2777C17.1856 36.4003 17.2078 36.522 17.2531 36.6359C17.2983 36.7497 17.3656 36.8535 17.4512 36.9413C17.5368 37.029 17.6388 37.0989 17.7515 37.147C17.8642 37.1951 17.9854 37.2204 18.1079 37.2215H28.2813C28.5306 37.22 28.7692 37.1199 28.9449 36.9431C29.1205 36.7662 29.2191 36.527 29.2188 36.2777V25.5551C29.2189 25.3982 29.1824 25.2434 29.1123 25.103L26.9185 20.8851ZM27.3438 35.3457H19.0626V25.7691L20.7202 22.2207H25.5196L27.3438 25.7851V35.3457Z" fill="#E05E0F"/>
<path d="M65.2282 51.5959H55.6251V53.4709H65.2282C66.779 53.4709 67.9689 52.167 67.9689 50.6162V29.0443C67.9755 28.6816 67.9093 28.3213 67.7742 27.9846C67.6391 27.648 67.4378 27.3419 67.1822 27.0844C66.9267 26.827 66.6221 26.6235 66.2864 26.4858C65.9508 26.3482 65.591 26.2794 65.2282 26.2834H55.6251V28.1584H65.2282C65.3448 28.1541 65.461 28.1743 65.5693 28.2176C65.6776 28.2608 65.7756 28.3263 65.8572 28.4097C65.9387 28.4932 66.0018 28.5927 66.0426 28.702C66.0834 28.8113 66.1008 28.9279 66.0939 29.0443V50.6162C66.0939 51.1332 65.7453 51.5959 65.2282 51.5959Z" fill="#E05E0F"/>
<path d="M65.947 21.127H55.6251V23.002H65.947C67.3556 23.0064 68.705 23.5693 69.6992 24.5673C70.6933 25.5652 71.2511 26.9168 71.2501 28.3254V51.3332C71.2494 52.0275 71.1115 52.7148 70.8442 53.3556C70.577 53.9964 70.1857 54.5781 69.6928 55.0672C69.2 55.5562 68.6153 55.943 67.9725 56.2054C67.3297 56.4677 66.6413 56.6003 65.947 56.5957H55.6251V58.4707H65.947C66.8874 58.475 67.8195 58.2937 68.6897 57.937C69.5599 57.5804 70.3511 57.0554 71.018 56.3923C71.6849 55.7292 72.2143 54.941 72.5759 54.0728C72.9375 53.2047 73.1241 52.2737 73.1251 51.3332V28.3254C73.1255 26.4196 72.37 24.5916 71.0243 23.2421C69.6787 21.8926 67.8527 21.132 65.947 21.127Z" fill="#E05E0F"/>
<path d="M55.6657 8.4707H7.80325C7.28559 8.4707 6.87512 8.96555 6.87512 9.4832V65.2707C6.87512 69.2338 10.0901 72.5332 14.0532 72.5332H49.4157C53.3789 72.5332 56.5626 69.2338 56.5626 65.2707V9.4832C56.5626 8.96555 56.1834 8.4707 55.6657 8.4707ZM17.2089 70.6582C17.6082 69.252 18.7993 68.3145 20.2032 68.3145H43.2657C44.6697 68.3145 45.8607 69.252 46.2601 70.6582H17.2089ZM49.4157 70.6582H48.1892C47.7489 68.3145 45.7093 66.4395 43.2657 66.4395H20.2032C17.7597 66.4395 15.7201 68.3145 15.2798 70.6582H14.0532C11.1239 70.6582 8.75012 68.2001 8.75012 65.2707V10.3457H54.6876V23.1582H35.2673C35.1456 23.1613 35.0257 23.1886 34.9146 23.2385C34.8036 23.2885 34.7036 23.3601 34.6205 23.4491C34.5375 23.5381 34.473 23.6428 34.4309 23.7571C34.3887 23.8713 34.3698 23.9928 34.3751 24.1145V28.1285C34.3751 28.3772 34.4739 28.6156 34.6497 28.7914C34.8255 28.9672 35.064 29.066 35.3126 29.066C35.5613 29.066 35.7997 28.9672 35.9755 28.7914C36.1514 28.6156 36.2501 28.3772 36.2501 28.1285V25.0332H54.6876V36.2832H40.3595C40.1109 36.2832 39.8724 36.382 39.6966 36.5578C39.5208 36.7336 39.422 36.9721 39.422 37.2207C39.422 37.4693 39.5208 37.7078 39.6966 37.8836C39.8724 38.0594 40.1109 38.1582 40.3595 38.1582H54.6876V41.4395H40.3595C40.1109 41.4395 39.8724 41.5382 39.6966 41.714C39.5208 41.8899 39.422 42.1283 39.422 42.377C39.422 42.6256 39.5208 42.8641 39.6966 43.0399C39.8724 43.2157 40.1109 43.3145 40.3595 43.3145H54.6876V54.5645H36.2501V33.2648C36.2501 33.0161 36.1514 32.7777 35.9755 32.6019C35.7997 32.426 35.5613 32.3273 35.3126 32.3273C35.064 32.3273 34.8255 32.426 34.6497 32.6019C34.4739 32.7777 34.3751 33.0161 34.3751 33.2648V55.5441C34.3708 55.6626 34.391 55.7807 34.4342 55.891C34.4775 56.0014 34.543 56.1017 34.6267 56.1856C34.7104 56.2696 34.8104 56.3355 34.9206 56.3791C35.0308 56.4228 35.1488 56.4433 35.2673 56.4395H54.6876V65.2707C54.6876 68.2001 52.3451 70.6582 49.4157 70.6582Z" fill="#A3C3D0"/>
</svg>
