<svg width="80" height="80" viewBox="0 0 80 80" fill="none" xmlns="http://www.w3.org/2000/svg">
<g clip-path="url(#clip0_474_19326)">
<path d="M21.6625 15.8662C21.6668 12.6345 22.8544 9.51626 25.0008 7.10034C27.1472 4.68442 30.1039 3.13803 33.3126 2.7532C32.7925 2.69106 32.2692 2.65934 31.7454 2.6582C28.2437 2.66217 24.8865 4.055 22.4104 6.53111C19.9343 9.00723 18.5414 12.3644 18.5375 15.8662L18.5504 20.3118L18.6714 20.4327C18.8304 20.5912 19.0344 20.6968 19.2556 20.735C19.4769 20.7732 19.7045 20.7423 19.9075 20.6463C20.1273 20.5436 20.3055 20.369 20.4128 20.1513C20.6801 19.5749 21.1197 19.0957 21.6709 18.7798L21.6625 15.8662Z" fill="#DBEFD4"/>
<path d="M25.5011 36.9301C23.347 34.5442 22.1429 31.451 22.117 28.2366V28.2173C22.1172 27.9598 22.0265 27.7104 21.8609 27.5132C21.6953 27.316 21.4655 27.1835 21.2118 27.1391C20.9217 27.0875 20.6453 26.9769 20.3995 26.8143C20.1538 26.6516 19.944 26.4403 19.7832 26.1934C19.6223 25.9465 19.5137 25.6693 19.4642 25.3788C19.4147 25.0883 19.4252 24.7907 19.4951 24.5045C19.5624 24.2242 19.7176 23.9729 19.9379 23.7871C20.1583 23.6014 20.4322 23.491 20.7198 23.4721C20.9183 23.4539 21.1081 23.3817 21.2686 23.2635C21.4291 23.1452 21.5542 22.9854 21.6304 22.8012C22.3735 23.0235 23.1713 22.9745 23.8816 22.6631C24.5919 22.3517 25.1685 21.798 25.5084 21.1009C25.5795 20.9138 25.7198 20.7613 25.9003 20.6748L25.9518 20.672C27.8279 20.5671 31.03 20.388 34.4595 18.7929C34.0448 18.4641 33.644 18.1172 33.2572 17.752C29.1365 20.3193 25.0504 20.5477 22.8268 20.672L22.7753 20.6748C22.5948 20.7613 22.4545 20.9138 22.3834 21.1009C22.0435 21.798 21.4669 22.3517 20.7566 22.6631C20.0463 22.9745 19.2485 23.0235 18.5054 22.8012C18.4292 22.9854 18.3041 23.1452 18.1436 23.2635C17.9831 23.3817 17.7933 23.4539 17.5948 23.4721C17.3072 23.491 17.0333 23.6014 16.8129 23.7871C16.5926 23.9729 16.4374 24.2242 16.3701 24.5045C16.3002 24.7907 16.2897 25.0883 16.3392 25.3788C16.3887 25.6693 16.4973 25.9465 16.6582 26.1934C16.819 26.4403 17.0288 26.6516 17.2745 26.8143C17.5203 26.9769 17.7967 27.0875 18.0868 27.1391C18.3405 27.1835 18.5703 27.316 18.7359 27.5132C18.9015 27.7104 18.9922 27.9598 18.992 28.2173V28.2366C19.0178 31.4511 20.2219 34.5445 22.3761 36.9306C24.5848 39.3715 27.475 40.7159 30.5142 40.7159H33.0037C33.1098 40.7159 33.2156 40.7104 33.3214 40.7071C30.3992 40.6162 27.6326 39.2857 25.5011 36.9301Z" fill="#DBEFD4"/>
<path d="M19.6876 37.0732C18.8105 35.8468 18.1164 34.4994 17.627 33.0732L14.6772 44.1601C15.09 44.2301 15.61 44.3084 16.2207 44.3806L18.3384 42.1448L19.6876 37.0732Z" fill="#DBEFD4"/>
<path d="M24.7206 41.4783C24.1598 41.1879 23.6202 40.8584 23.1058 40.4922C23.0032 40.5468 22.9101 40.6175 22.8298 40.7016L21.6223 41.9766L21.7528 44.4184L22.0965 44.4317C22.599 44.4512 23.1176 44.4695 23.6386 44.4745L24.8582 44.0611L24.7206 41.4783Z" fill="#DBEFD4"/>
<path d="M18.0018 49.7539L21.3115 48.6321L20.5039 47.8467L14.8768 49.7539C13.7399 50.1388 12.7522 50.8704 12.0528 51.846C11.3533 52.8215 10.9774 53.9918 10.9778 55.1921V62.5378H14.1028V55.1921C14.1024 53.9918 14.4783 52.8215 15.1778 51.846C15.8772 50.8704 16.8649 50.1388 18.0018 49.7539Z" fill="#DBEFD4"/>
<path d="M27.2903 47.6387L25.7278 46.0762L22.8304 47.058L24.4257 48.6095L27.2903 47.6387Z" fill="#DBEFD4"/>
<path d="M28.6758 44.3691V42.7655C28.1483 42.6873 27.6264 42.5755 27.1133 42.4307V44.3691L31.759 49.0022L32.5403 48.2232L28.6758 44.3691Z" fill="#DBEFD4"/>
<path d="M53.3751 67.8562C52.2757 67.5059 51.2256 67.0167 50.2501 66.4004V75.8788L53.3751 72.8882V67.8562Z" fill="#DBEFD4"/>
<path d="M52.4617 62.8673C50.4599 60.8381 49.3368 58.1029 49.335 55.2526C49.335 49.6627 53.6264 45.0301 59.1787 44.288C58.6608 44.218 58.1388 44.1824 57.6162 44.1816C51.3268 44.1816 46.21 49.148 46.21 55.2526C46.2118 58.1029 47.3349 60.8381 49.3367 62.8673C50.4136 63.9702 51.7019 64.8448 53.1244 65.4386C54.547 66.0324 56.0747 66.3334 57.6162 66.3235C58.1364 66.3226 58.656 66.2874 59.1715 66.2179C56.6212 65.8892 54.2567 64.7085 52.4617 62.8673Z" fill="#DBEFD4"/>
<path d="M34.8797 57.9678C34.5896 57.9678 34.3114 58.083 34.1063 58.2881C33.9011 58.4932 33.7859 58.7714 33.7859 59.0615C33.7859 59.3516 33.9011 59.6298 34.1063 59.8349C34.3114 60.04 34.5896 60.1553 34.8797 60.1553H36.2456C36.5357 60.1553 36.8139 60.04 37.019 59.8349C37.2241 59.6298 37.3393 59.3516 37.3393 59.0615C37.3393 58.7714 37.2241 58.4932 37.019 58.2881C36.8139 58.083 36.5357 57.9678 36.2456 57.9678H34.8797Z" fill="#A3C3D0"/>
<path d="M47.1408 15.9606C47.1491 13.9374 46.7585 11.9324 45.9915 10.0603C45.2244 8.1881 44.0958 6.4855 42.6702 5.0498C41.2447 3.6141 39.5501 2.47347 37.6834 1.69313C35.8168 0.912788 33.8146 0.508038 31.7914 0.502021C29.7681 0.496005 27.7636 0.88884 25.8923 1.65807C24.021 2.42729 22.3197 3.55782 20.8856 4.98502C19.4516 6.41221 18.3129 8.10807 17.5347 9.97565C16.7565 11.8432 16.354 13.8459 16.3503 15.8691L16.3645 20.7656C16.3645 20.7719 16.3645 20.778 16.3645 20.7842V20.7914L16.3812 21.5316C15.8534 21.7371 15.3833 22.0675 15.0113 22.4947C14.6393 22.9218 14.3765 23.4328 14.2454 23.9838C14.0133 24.9324 14.1075 25.9315 14.5129 26.82C14.9183 27.7085 15.6112 28.4344 16.4798 28.8808L12.2626 44.726C12.2252 44.8665 12.2161 45.013 12.236 45.1571C12.2559 45.3012 12.3043 45.4398 12.3784 45.5649C12.4525 45.69 12.5508 45.7991 12.6676 45.8858C12.7843 45.9725 12.9172 46.035 13.0584 46.0697C14.2028 46.3247 15.3622 46.5069 16.5297 46.615C16.6963 46.6321 16.8647 46.6106 17.0218 46.5524C17.1789 46.4942 17.3206 46.4007 17.4359 46.2791L19.5433 44.0542L19.6229 45.5441C19.6282 45.6375 19.6455 45.7298 19.6743 45.8188L14.1747 47.6822C12.6046 48.2137 11.2406 49.2242 10.2748 50.5713C9.30889 51.9185 8.78971 53.5346 8.79028 55.1922V63.6316C8.79028 63.9217 8.90552 64.1999 9.11064 64.405C9.31575 64.6101 9.59395 64.7253 9.88403 64.7253H48.5542V62.5378H32.839V57.741L43.0144 47.8464L47.0861 49.2264L47.7883 47.1547L41.7134 45.0958L42.835 43.7191L45.6114 46.2285C45.8124 46.4102 46.0737 46.5108 46.3447 46.5108C46.3892 46.5108 46.4336 46.5081 46.4778 46.5025L49.8228 46.0924C49.9727 46.0739 50.1172 46.0246 50.2471 45.9475C50.3771 45.8704 50.4896 45.7673 50.5777 45.6445C50.6658 45.5218 50.7275 45.3821 50.7589 45.2344C50.7903 45.0866 50.7908 44.9339 50.7603 44.786L47.4322 28.65C48.1836 28.1579 48.764 27.4448 49.0935 26.6091C49.4229 25.7734 49.4851 24.8561 49.2715 23.9836C49.1398 23.4296 48.8748 22.9162 48.4998 22.4877C48.1247 22.0592 47.6508 21.7287 47.1192 21.5247L47.1408 15.9606ZM36.6876 14.9944C37.7379 17.0142 39.4533 18.7524 41.5878 20.0071C39.173 19.3402 36.9449 18.1245 35.0773 16.4549C35.6411 15.9987 36.1788 15.5111 36.6876 14.9944ZM31.7454 2.65799C33.487 2.65793 35.2114 3.00232 36.8194 3.67132C38.4274 4.34033 39.8872 5.32075 41.1147 6.55615C42.3423 7.79155 43.3134 9.25753 43.9722 10.8697C44.631 12.4819 44.9644 14.2085 44.9533 15.95L44.9415 19.1631C41.7936 18.0563 39.3165 15.8619 38.2672 13.1952C39.0353 12.2114 39.728 11.1709 40.3392 10.0827C40.4099 9.95762 40.4552 9.81988 40.4726 9.6773C40.49 9.53473 40.4792 9.39012 40.4407 9.25173C40.4023 9.11334 40.3369 8.98389 40.2484 8.87075C40.1599 8.75762 40.05 8.66302 39.925 8.59236C39.6724 8.44966 39.3735 8.41314 39.094 8.49082C38.8145 8.5685 38.5774 8.75402 38.4347 9.00658C33.4162 17.8892 26.1818 18.2933 22.7051 18.4877L22.6534 18.4905C21.7406 18.5416 20.8823 19.178 20.4131 20.1511C20.3059 20.3688 20.1276 20.5434 19.9078 20.6461C19.7048 20.742 19.4772 20.773 19.256 20.7348C19.0347 20.6966 18.8307 20.591 18.6717 20.4325L18.5508 20.3116L18.5378 15.866C18.5418 12.3643 19.9345 9.00711 22.4106 6.53101C24.8866 4.0549 28.2437 2.66204 31.7454 2.65799ZM22.097 44.4317L21.7533 44.4185L21.5917 41.3952C21.5803 41.1816 21.5065 40.976 21.3794 40.804C21.2524 40.6319 21.0777 40.5008 20.8769 40.427C20.6762 40.3532 20.4582 40.3399 20.25 40.3887C20.0417 40.4375 19.8523 40.5463 19.7053 40.7016L16.2209 44.38C15.6101 44.3078 15.0901 44.2296 14.6773 44.1596L17.6278 33.0728C18.3 35.0403 19.3635 36.8514 20.754 38.3971C21.9318 39.713 23.3471 40.795 24.9259 41.5863V44.0383L23.6392 44.4746C23.1181 44.4696 22.5995 44.4513 22.097 44.4317ZM36.4047 44.3692L31.759 49.0017L27.1133 44.3686V42.4302C28.2197 42.7437 29.3642 42.9026 30.5142 42.9024H33.0037C34.1537 42.9026 35.2982 42.7437 36.4047 42.4302V44.3692ZM25.7278 46.0769L30.6515 50.9861V54.663L22.8304 47.0575L25.7278 46.0769ZM10.9778 62.5385V55.1922C10.9774 53.9919 11.3533 52.8216 12.0528 51.846C12.7522 50.8705 13.7399 50.1388 14.8768 49.7539L20.5039 47.8467L30.6515 57.7147V62.5378L10.9778 62.5385ZM32.839 54.691V51.0141L37.7901 46.0766L40.6875 47.0586L32.839 54.691ZM46.7075 44.2717L43.4475 41.3253C43.3374 41.2259 43.2083 41.1498 43.0679 41.1019C42.9275 41.0539 42.7789 41.035 42.631 41.0463C42.4831 41.0575 42.339 41.0988 42.2075 41.1675C42.076 41.2362 41.9599 41.331 41.8662 41.446L39.5022 44.3475L38.5922 44.0389V41.5863C40.171 40.795 41.5864 39.713 42.764 38.3971C44.2528 36.7422 45.3658 34.7848 46.0265 32.6592L48.379 44.0655L46.7075 44.2717ZM47.1478 24.5053C47.2178 24.7916 47.2284 25.0891 47.1789 25.3796C47.1294 25.6701 47.0208 25.9473 46.8599 26.1942C46.699 26.4411 46.4892 26.6524 46.2435 26.815C45.9977 26.9776 45.7212 27.088 45.4311 27.1396C45.1774 27.184 44.9476 27.3164 44.782 27.5136C44.6164 27.7109 44.5257 27.9602 44.5259 28.2177V28.2371C44.5 31.4515 43.296 34.5449 41.1419 36.931C38.9333 39.3719 36.0429 40.7163 33.0037 40.7163H30.5142C27.475 40.7163 24.5848 39.3725 22.3761 36.931C20.2217 34.5447 19.0176 31.4509 18.992 28.2361V28.2167C18.9922 27.9592 18.9015 27.7099 18.7359 27.5127C18.5703 27.3155 18.3405 27.183 18.0868 27.1386C17.7967 27.087 17.5203 26.9764 17.2745 26.8137C17.0288 26.6511 16.819 26.4398 16.6582 26.1929C16.4973 25.946 16.3887 25.6687 16.3392 25.3782C16.2897 25.0878 16.3002 24.7902 16.3701 24.5039C16.4374 24.2237 16.5926 23.9724 16.8129 23.7866C17.0333 23.6009 17.3073 23.4905 17.5948 23.4716C17.7933 23.4534 17.9831 23.3812 18.1436 23.263C18.3041 23.1447 18.4292 22.9848 18.5054 22.8006C19.2485 23.0229 20.0463 22.974 20.7566 22.6626C21.467 22.3511 22.0435 21.7975 22.3834 21.1003C22.4545 20.9133 22.5948 20.7607 22.7753 20.6742L22.8268 20.6714C25.0504 20.5464 29.1365 20.3188 33.2572 17.7514C36.4504 20.7634 40.6127 22.5385 44.9969 22.7578C45.0679 22.9522 45.1926 23.1225 45.3565 23.2488C45.5205 23.3752 45.7169 23.4524 45.9229 23.4716C46.2106 23.4905 46.4847 23.601 46.7051 23.7869C46.9255 23.9728 47.0806 24.2243 47.1478 24.5047V24.5053Z" fill="#A3C3D0"/>
<path d="M50.0892 54.2186L53.6876 56.7629L52.317 60.8681C52.244 61.0868 52.2419 61.3229 52.3111 61.5429C52.3803 61.7628 52.5172 61.9552 52.7023 62.0927C52.8873 62.2301 53.1111 62.3056 53.3417 62.3083C53.5722 62.311 53.7977 62.2407 53.9859 62.1076L57.6162 59.5408L61.2465 62.1075C61.4348 62.2405 61.6602 62.3107 61.8907 62.3079C62.1211 62.3052 62.3449 62.2298 62.5299 62.0923C62.7149 61.9549 62.8518 61.7625 62.921 61.5427C62.9902 61.3228 62.9882 61.0867 62.9153 60.8681L61.5448 56.7629L65.1433 54.2187C65.3329 54.0847 65.4749 53.8938 65.5488 53.6737C65.6227 53.4536 65.6246 53.2156 65.5543 52.9943C65.484 52.7731 65.345 52.5799 65.1576 52.4428C64.9702 52.3057 64.744 52.2318 64.5118 52.2319H60.0314L58.6531 48.1037C58.5804 47.8861 58.4411 47.6968 58.2549 47.5627C58.0688 47.4286 57.8451 47.3564 57.6157 47.3564C57.3862 47.3564 57.1626 47.4286 56.9764 47.5627C56.7902 47.6968 56.6509 47.8861 56.5782 48.1037L55.1998 52.2319H50.7206C50.4884 52.2319 50.2623 52.3058 50.075 52.4429C49.8876 52.5799 49.7487 52.7731 49.6784 52.9943C49.6081 53.2156 49.61 53.4535 49.6838 53.6735C49.7577 53.8936 49.8996 54.0845 50.0892 54.2186ZM55.9884 54.4194C56.2179 54.4194 56.4415 54.3472 56.6277 54.2131C56.8139 54.079 56.9532 53.8897 57.0259 53.672L57.6162 51.9037L58.2065 53.672C58.2792 53.8897 58.4185 54.079 58.6047 54.2131C58.7909 54.3472 59.0146 54.4194 59.244 54.4194H61.0704L59.6187 55.4458C59.4269 55.5813 59.2838 55.7751 59.2106 55.9983C59.1374 56.2216 59.1381 56.4625 59.2125 56.6853L59.7828 58.3936L58.2475 57.3081C58.0628 57.1775 57.8422 57.1074 57.6161 57.1074C57.3899 57.1074 57.1693 57.1775 56.9847 57.3081L55.4492 58.3937L56.0195 56.6853C56.0938 56.4625 56.0945 56.2216 56.0213 55.9984C55.9482 55.7752 55.8051 55.5815 55.6132 55.4459L54.1615 54.4194H55.9884Z" fill="#E05E0F"/>
<path d="M48.7271 79.4451C48.9242 79.5292 49.1416 79.5536 49.3524 79.5153C49.5632 79.4769 49.7581 79.3775 49.9129 79.2293L57.6161 71.8575L65.3192 79.2293C65.474 79.3776 65.6689 79.4771 65.8798 79.5155C66.0907 79.5539 66.3082 79.5295 66.5053 79.4453C66.7024 79.3611 66.8705 79.2209 66.9885 79.042C67.1066 78.8631 67.1695 78.6535 67.1695 78.4392V64.6754C68.4437 63.4587 69.4586 61.9968 70.1529 60.3776C70.8473 58.7583 71.2069 57.0154 71.21 55.2536C71.21 47.9428 65.1118 41.9951 57.6162 41.9951C50.1206 41.9951 44.0225 47.9428 44.0225 55.2536C44.0232 58.6755 45.3702 61.9597 47.7725 64.3967C47.8676 64.494 47.9664 64.5864 48.0639 64.6804V78.4392C48.0638 78.6534 48.1266 78.8629 48.2445 79.0417C48.3624 79.2205 48.5302 79.3608 48.7271 79.4451ZM64.982 75.8785L58.3726 69.5534C58.169 69.3586 57.8981 69.2498 57.6164 69.2498C57.3346 69.2498 57.0637 69.3586 56.8601 69.5534L50.2507 75.8785V66.4001C52.4596 67.7812 55.0126 68.5128 57.6177 68.5112C60.2228 68.5096 62.7749 67.775 64.9821 66.3912L64.982 75.8785ZM46.21 55.2536C46.21 49.149 51.3268 44.1826 57.6162 44.1826C63.9056 44.1826 69.0225 49.149 69.0225 55.2536C69.0225 61.3581 63.9056 66.3245 57.6162 66.3245C56.0747 66.3344 54.547 66.0334 53.1244 65.4396C51.7019 64.8457 50.4136 63.9712 49.3367 62.8682C47.3347 60.8389 46.2116 58.1034 46.21 55.2528V55.2536Z" fill="#E05E0F"/>
</g>
<defs>
<clipPath id="clip0_474_19326">
<rect width="80" height="80" fill="white" transform="translate(0.00012207 0.00195312)"/>
</clipPath>
</defs>
</svg>
