<svg width="24" height="24" viewBox="0 0 24 24" fill="none" xmlns="http://www.w3.org/2000/svg">
<g clip-path="url(#clip0_474_19125)">
<path d="M21.4219 11.7188H20.25V11.0156C20.25 10.6273 19.9352 10.3125 19.5469 10.3125H10.0781C9.68981 10.3125 9.375 10.6273 9.375 11.0156V15.9375H4.45312C1.99767 15.9375 0 17.9352 0 20.3906V21.8906C0 23.0537 0.946266 24 2.10938 24H18.1406C19.3037 24 20.25 23.0537 20.25 21.8906V19.2188H21.4219C22.8435 19.2188 24 18.0622 24 16.6406V14.2969C24 12.8753 22.8435 11.7188 21.4219 11.7188ZM18.8438 11.7188V13.125H10.7812V11.7188H18.8438ZM2.10938 22.5938C1.72167 22.5938 1.40625 22.2783 1.40625 21.8906V20.3906C1.40625 18.7106 2.77308 17.3438 4.45312 17.3438H4.6875V18.5156C4.6875 18.9039 5.00231 19.2188 5.39062 19.2188C5.77894 19.2188 6.09375 18.9039 6.09375 18.5156V17.3438H8.4375V18.5156C8.4375 18.9039 8.75231 19.2188 9.14062 19.2188C9.52894 19.2188 9.84375 18.9039 9.84375 18.5156V17.3438H10.0781C11.7582 17.3438 13.125 18.7106 13.125 20.3906V21.8906C13.125 22.2783 12.8096 22.5938 12.4219 22.5938H2.10938ZM18.1406 22.5938H14.4103C14.4884 22.3737 14.5312 22.1371 14.5312 21.8906V20.3906C14.5312 18.1744 12.9038 16.3313 10.7812 15.9932V14.5312H18.8438V21.8906C18.8438 22.2783 18.5283 22.5938 18.1406 22.5938ZM22.5938 16.6406C22.5938 17.2868 22.068 17.8125 21.4219 17.8125H20.25V13.125H21.4219C22.068 13.125 22.5938 13.6507 22.5938 14.2969V16.6406Z" fill="#225266"/>
<path d="M16.2656 8.90625C16.6539 8.90625 16.9688 8.59144 16.9688 8.20312V7.26562C16.9688 6.87792 17.2842 6.5625 17.6719 6.5625C18.835 6.5625 19.7812 5.61623 19.7812 4.45312C19.7812 3.29002 18.835 2.34375 17.6719 2.34375C17.2842 2.34375 16.9688 2.02833 16.9688 1.64062V0.703125C16.9688 0.314812 16.6539 0 16.2656 0C15.8773 0 15.5625 0.314812 15.5625 0.703125V1.64062C15.5625 2.80373 16.5088 3.75 17.6719 3.75C18.0596 3.75 18.375 4.06542 18.375 4.45312C18.375 4.84083 18.0596 5.15625 17.6719 5.15625C16.5088 5.15625 15.5625 6.10252 15.5625 7.26562V8.20312C15.5625 8.59144 15.8773 8.90625 16.2656 8.90625Z" fill="#225266"/>
<path d="M11.5781 8.90625C11.9664 8.90625 12.2812 8.59144 12.2812 8.20312V7.26562C12.2812 6.87792 12.5967 6.5625 12.9844 6.5625C14.1475 6.5625 15.0938 5.61623 15.0938 4.45312C15.0938 3.29002 14.1475 2.34375 12.9844 2.34375C12.5967 2.34375 12.2812 2.02833 12.2812 1.64062V0.703125C12.2812 0.314812 11.9664 0 11.5781 0C11.1898 0 10.875 0.314812 10.875 0.703125V1.64062C10.875 2.80373 11.8213 3.75 12.9844 3.75C13.3721 3.75 13.6875 4.06542 13.6875 4.45312C13.6875 4.84083 13.3721 5.15625 12.9844 5.15625C11.8213 5.15625 10.875 6.10252 10.875 7.26562V8.20312C10.875 8.59144 11.1898 8.90625 11.5781 8.90625Z" fill="#225266"/>
</g>
<defs>
<clipPath id="clip0_474_19125">
<rect width="24" height="24" fill="white"/>
</clipPath>
</defs>
</svg>
