<svg width="144" height="144" viewBox="0 0 144 144" fill="none" xmlns="http://www.w3.org/2000/svg">
<path d="M31.5 61.2561C28.9406 58.6967 27.5344 55.2373 27.5625 51.6373V51.4686L27.45 35.8311C24.7219 38.0529 22.7812 41.1186 21.9375 44.5217L21.2625 47.2498L18.9562 46.1248C18.7312 45.8998 18.5906 45.5904 18.5344 45.2529C17.4094 45.5342 16.4812 46.1811 16.2 47.2779C16.1437 47.5592 16.1437 47.8404 16.1719 48.1217C16.2 49.8373 17.4375 51.2717 19.125 51.5529V51.5811C19.0687 59.0623 25.0875 65.1373 32.5687 65.1936H32.7094C34.1437 65.1936 35.55 64.9686 36.9281 64.5186C36.1969 64.2936 35.4937 63.9842 34.8187 63.6467C33.5812 63.0561 32.4562 62.2404 31.5 61.2561Z" fill="#DBEFD4"/>
<path d="M22.3032 70.0312C19.8844 70.3125 17.5219 71.1 15.2438 71.8875L13.7531 72.3937C11.1375 73.2656 9.00002 75.2062 7.8469 77.7094C7.79065 77.8219 7.76252 77.9344 7.7344 78.0469C7.2844 79.2281 7.08752 80.4656 7.08752 81.7313V106.875H15.525V81.7313C15.525 80.4656 15.7219 79.2281 16.1719 78.0469C16.2281 77.9344 16.2281 77.8219 16.2844 77.7094C17.4375 75.1781 19.575 73.2656 22.1906 72.3656L22.6125 72.225L22.3313 70.1156L22.3032 70.0312Z" fill="#DBEFD4"/>
<path d="M137.784 79.7064C137.728 79.5658 137.841 79.8189 137.784 79.7064V79.7064Z" fill="#A3C3D0"/>
<path d="M137.784 79.7062C136.406 76.6406 133.706 74.0813 130.528 73.0125L128.925 72.4781C125.494 71.2969 121.978 70.425 118.406 69.9188V67.0781C118.941 66.7125 119.447 66.3187 119.925 65.8687C122.372 63.6187 123.975 60.5813 124.425 57.2625C126.984 56.5594 128.503 53.9156 127.884 51.3563C127.519 49.95 126.45 48.825 125.072 48.4031L125.297 45.3094C125.578 41.5688 124.425 37.8562 122.062 34.9031C121.359 34.0594 120.572 33.2719 119.7 32.5969C119.362 27.5344 115.2 23.625 110.166 23.625C105.187 23.625 101.025 27.4781 100.659 32.4563C96.7781 35.55 94.6687 40.3312 95.0062 45.2812L95.2312 48.4031C93.825 48.825 92.7562 49.9219 92.3906 51.3563C91.7719 53.9438 93.2906 56.5594 95.85 57.2625C96.4406 61.2 98.6062 64.7156 101.812 67.05V69.9188C99.4781 70.2563 97.1437 70.7625 94.8656 71.3813L95.7656 74.6437C96.4406 74.4469 97.1156 74.2781 97.7906 74.1375L99.1406 84.375C99.2531 85.3031 100.097 85.95 101.025 85.8375C101.194 85.8094 101.362 85.7813 101.503 85.6969L104.85 84.1781L105.553 87.0187L102.712 106.594L106.059 107.072L108.731 88.6219L111.853 88.6781L113.906 107.016L117.253 106.65L115.059 87.1875L115.903 84.4031L118.744 85.6969C119.587 86.0906 120.6 85.6969 120.966 84.8531C121.022 84.7125 121.078 84.5438 121.106 84.375L122.456 74.1375C124.284 74.5594 126.084 75.0938 127.856 75.6844L129.431 76.2188C131.737 76.9781 133.65 78.8063 134.691 81.0281C135.084 82.0688 135.309 83.3063 135.281 84.4031V106.622H138.656V84.4313C138.684 82.8563 138.319 81.1406 137.784 79.7062ZM110.166 27C112.359 27 114.384 28.1531 115.481 30.0656C111.487 28.4344 107.437 29.3063 104.709 30.3188C105.75 28.2938 107.859 27 110.166 27ZM115.087 33.5813C116.972 34.5938 118.378 35.7187 119.391 36.9562C121.219 39.2344 122.091 42.1031 121.894 45.0281L121.697 47.7281C119.559 46.6031 118.884 44.1562 118.856 44.0156C118.687 43.3125 118.069 42.7781 117.309 42.75C108.056 42.1875 106.116 39.9938 104.287 34.1156C106.397 33.1313 111.037 31.3875 115.087 33.5813ZM101.475 36.2812C101.869 37.4625 102.403 38.6156 103.022 39.7125C101.222 40.725 99.6469 42.075 98.3812 43.7062C98.4937 40.95 99.5906 38.3062 101.475 36.2812ZM99.0844 55.6594C99.0562 54.7594 98.325 54.0281 97.3969 54H97.1437C96.3 54.0281 95.625 53.3531 95.5969 52.5094C95.5969 52.3969 95.625 52.2562 95.6531 52.1437C95.7656 51.6375 96.2719 51.6094 96.6094 51.6656C96.7219 51.6937 96.8062 51.7219 96.9187 51.75H97.0312C97.5094 51.7219 97.9594 51.525 98.2687 51.1594C98.4656 50.9344 98.6062 50.6812 98.6625 50.4C100.097 45.9 102.825 43.5938 105.131 42.4125C107.381 44.4656 110.672 45.6187 115.987 46.0406C116.747 47.8406 118.687 51.1594 122.962 51.6375L123.666 51.6094C124.059 51.4969 124.481 51.75 124.594 52.1437C124.678 52.5375 124.622 52.9594 124.425 53.2969C124.2 53.6344 123.862 53.8875 123.469 53.9438H122.878C121.95 53.9719 121.219 54.675 121.191 55.6031C120.966 61.7062 115.847 66.4594 109.744 66.2344C103.95 66.0938 99.3094 61.4531 99.0844 55.6594ZM115.031 68.8219V71.1C115.031 72.1969 114.609 73.2375 113.822 73.9969L110.109 77.5406L106.397 73.9969C105.609 73.2375 105.159 72.1969 105.159 71.1281V68.8219C106.566 69.3281 108.056 69.6375 109.547 69.6938H110.109C111.797 69.7219 113.456 69.4125 115.031 68.8219ZM102.178 81.6188L101.109 73.4062C101.447 73.35 101.812 73.2937 102.15 73.2375C102.516 74.4469 103.191 75.5438 104.091 76.4156L107.156 79.3688L102.178 81.6188ZM112.106 85.275L108.591 85.2188L107.972 82.8563L110.306 81.6469L112.809 82.8563L112.106 85.275ZM118.069 81.6188L113.091 79.3688L116.156 76.4156C117.056 75.5438 117.731 74.4469 118.097 73.2375L119.109 73.4062L118.069 81.6188Z" fill="#A3C3D0"/>
<path d="M128.334 94.5846C127.969 93.7127 126.984 93.319 126.141 93.6846C125.269 94.0502 124.875 95.0346 125.241 95.8783V95.9065C126.45 98.719 126.844 103.106 126.169 106.313L129.488 106.988C130.275 103.106 129.797 98.0158 128.334 94.5846Z" fill="#A3C3D0"/>
<path d="M50.7375 70.2562C47.5031 69.1312 44.1562 68.3155 40.7812 67.8093V64.6593C44.7187 62.1562 47.6437 57.8249 48.0375 52.8187C50.2312 51.778 51.3844 49.303 50.7937 46.9405C50.4844 45.7312 49.6969 44.7187 48.5719 44.128L48.7969 40.7812C49.1344 36.3374 47.5594 31.9499 44.5219 28.7155C38.3906 22.1624 28.125 21.8249 21.6 27.9562C21.3469 28.2093 21.0656 28.4624 20.8406 28.7155C17.775 31.9499 16.2281 36.3374 16.5656 40.7812L16.7906 44.128C15.6937 44.6905 14.8781 45.7312 14.5969 46.9124C14.0062 49.303 15.1875 51.7499 17.4094 52.7905C17.775 57.7124 20.5031 62.128 24.75 64.6312V67.7812C21.3469 68.2874 17.9719 69.103 14.7094 70.228L13.1906 70.7343C10.125 71.8312 7.59374 74.0812 6.27186 77.0343C6.21561 77.1749 6.18749 77.2874 6.13124 77.428C5.59686 78.8062 5.34374 80.2406 5.37186 81.7312V106.594H8.74686V81.703C8.74686 80.6624 8.91561 79.6499 9.28124 78.6656C9.30936 78.5812 9.33749 78.4687 9.39374 78.3843C10.35 76.3031 12.1219 74.6999 14.3156 73.9687L15.8062 73.4624C17.4656 72.8999 19.1531 72.3937 20.8687 71.9999L22.1344 81.703C22.2469 82.6312 23.0906 83.2781 24.0187 83.1656C24.1875 83.1374 24.3562 83.1093 24.4969 83.0249L27.1406 81.8155L27.9 84.3749L25.6781 106.453L29.025 106.791L31.1062 85.8655L33.9187 85.8093L36.6187 106.819L39.9656 106.397L37.125 84.2062L37.7719 81.5905L40.8656 82.9968C41.7094 83.3906 42.7219 82.9968 43.0875 82.153C43.1437 82.0124 43.2 81.8437 43.2281 81.6749L44.4937 71.9718C46.2094 72.3655 47.8969 72.8718 49.5562 73.4343L50.625 73.7999L51.7219 70.6218L50.7375 70.2562ZM23.2875 31.0499C28.1531 25.8749 36.2812 25.5937 41.4562 30.4312C41.6531 30.628 41.8781 30.8249 42.075 31.0499C44.4937 33.6093 45.7031 37.0687 45.45 40.5843L45.1687 44.6343C44.8594 44.6905 44.55 44.7749 44.2687 44.8312L43.9312 40.6124C43.8187 39.4593 42.8625 38.5593 41.6812 38.5593H41.4281L40.3312 38.6718C36.2812 39.0937 32.3437 37.3218 29.9531 34.0312C29.4187 33.2999 28.3781 33.103 27.5906 33.6093C23.9344 36.1124 21.2906 39.853 20.2219 44.1562L20.1375 44.6624L19.8844 40.6124C19.6594 37.0687 20.8687 33.6093 23.2875 31.0499ZM20.6719 51.6093C20.6719 50.7937 20.0812 50.0905 19.2656 49.9499C18.8437 49.8655 18.4781 49.6687 18.225 49.3593C17.8031 48.853 17.7187 48.1499 17.9437 47.5312L20.5594 48.7968C21.4031 49.1905 22.4156 48.8249 22.8094 47.9812C22.8656 47.8687 22.8937 47.7843 22.9219 47.6718L23.5969 44.9437C24.3281 41.9624 25.9875 39.2905 28.3219 37.3218C31.4437 40.753 36.0281 42.4968 40.6406 42.0187L41.0344 46.8562C41.0906 47.3624 41.3437 47.8124 41.7375 48.0937C42.3844 48.5437 42.7219 48.6562 46.575 47.7562C46.7156 47.728 46.8281 47.6718 46.9687 47.6155C47.0812 47.5593 47.2219 47.4749 47.3344 47.3905C47.4187 47.503 47.475 47.6155 47.5312 47.7562C47.7562 48.7124 47.1937 49.6687 46.2375 49.8937C46.2094 49.8937 46.1531 49.9218 46.0969 49.9218C45.2812 50.0624 44.6906 50.7937 44.6906 51.6093C44.6625 58.2468 39.2625 63.5905 32.625 63.5343C26.0156 63.5062 20.7 58.1905 20.6719 51.6093ZM37.4062 66.2062V69.0468C37.3781 70.0593 36.9562 71.0437 36.1969 71.7468L32.7094 75.0937L29.25 71.7468C28.5187 71.0437 28.125 70.0593 28.125 69.0468V66.2062C29.6156 66.6843 31.1906 66.9374 32.7656 66.9374C34.3406 66.9093 35.9156 66.6562 37.4062 66.2062ZM25.1437 79.003L24.1312 71.3249C24.4125 71.2687 24.6937 71.2405 24.975 71.1843C25.3406 72.3374 25.9875 73.3499 26.8312 74.1937L29.7 76.9218L25.1437 79.003ZM34.0875 82.4624L30.825 82.5187L30.2062 80.2968L32.4281 79.2843L34.65 80.2968L34.0875 82.4624ZM40.2187 79.003L35.6625 76.9218L38.5031 74.1937C39.375 73.378 39.9937 72.3374 40.3594 71.1843C40.6406 71.2405 40.9219 71.2687 41.2031 71.3249L40.2187 79.003Z" fill="#A3C3D0"/>
<path d="M16.3125 88.7627C15.3844 88.7627 14.625 89.5221 14.625 90.4502V106.594H18V90.4502C18 89.5221 17.2406 88.7627 16.3125 88.7627Z" fill="#A3C3D0"/>
<path d="M92.8125 38.5313V33.3563C95.625 33.3563 97.875 30.9938 97.875 28.0969V9.84375C97.875 6.94688 95.5969 4.5 92.7 4.5H51.3C48.4031 4.5 46.125 6.94688 46.125 9.84375V28.0969C46.125 30.9938 48.4031 33.4688 51.3 33.4688H51.4687V38.5313C51.4687 39.2344 51.8906 39.8531 52.5375 40.1063C52.7344 40.1906 52.9312 40.2188 53.1281 40.2188C53.6062 40.2469 54.0563 40.05 54.3656 39.7125L60.075 33.4406H83.8969L89.775 39.7125C90.45 40.4156 91.575 40.4156 92.2781 39.7125C92.6156 39.4313 92.8125 39.0094 92.8125 38.5313ZM91.0406 30.0938C90.1969 30.0375 89.4937 30.7125 89.4375 31.5281V31.6688V34.2563L85.95 30.6C85.6125 30.2625 85.1344 30.0938 84.6562 30.1219H59.3437C58.8656 30.0938 58.4156 30.2906 58.1063 30.6281L54.8437 34.1719V31.6969C54.8437 30.7688 54.0562 30.1219 53.1281 30.1219H51.3C50.2594 30.1219 49.5 29.1656 49.5 28.125V9.84375C49.5 8.80313 50.2594 7.875 51.3 7.875H92.7C93.7406 7.875 94.5 8.80313 94.5 9.84375V28.0969C94.5 29.1375 93.7406 30.0938 92.7 30.0938H91.0406Z" fill="#A3C3D0"/>
<path d="M88.6781 23.625H77.4562C76.5281 23.625 75.7687 24.3844 75.7687 25.3125C75.7687 26.2406 76.5281 27 77.4562 27H88.6781C89.6062 27 90.3656 26.2406 90.3656 25.3125C90.3656 24.3844 89.6062 23.625 88.6781 23.625Z" fill="#A3C3D0"/>
<path d="M71.325 23.625H67.1906C66.2625 23.625 65.5031 24.3844 65.5031 25.3125C65.5031 26.2406 66.2625 27 67.1906 27H71.325C72.2531 27 73.0125 26.2406 73.0125 25.3125C73.0125 24.3844 72.2531 23.625 71.325 23.625Z" fill="#A3C3D0"/>
<path d="M61.2843 23.625H55.35C54.4219 23.625 53.6625 24.3844 53.6625 25.3125C53.6625 26.2406 54.4219 27 55.35 27H61.2843C62.2125 27 62.9718 26.2406 62.9718 25.3125C62.9718 24.3844 62.2125 23.625 61.2843 23.625Z" fill="#A3C3D0"/>
<path d="M88.6781 16.875H80.8031C79.875 16.875 79.1156 17.6344 79.1156 18.5625C79.1156 19.4906 79.875 20.25 80.8031 20.25H88.6781C89.6062 20.25 90.3656 19.4906 90.3656 18.5625C90.3656 17.6344 89.6062 16.875 88.6781 16.875Z" fill="#A3C3D0"/>
<path d="M74.4187 16.875H55.3218C54.3937 16.875 53.6343 17.6344 53.6343 18.5625C53.6343 19.4906 54.3937 20.25 55.3218 20.25H74.4187C75.3468 20.25 76.1062 19.4906 76.1062 18.5625C76.1062 17.6344 75.375 16.875 74.4187 16.875Z" fill="#A3C3D0"/>
<path d="M88.6781 9.84375H85.0219C84.0937 9.84375 83.3344 10.6031 83.3344 11.5312C83.3344 12.4594 84.0937 13.2188 85.0219 13.2188H88.6781C89.6062 13.2188 90.3656 12.4594 90.3656 11.5312C90.3656 10.6031 89.6062 9.84375 88.6781 9.84375Z" fill="#A3C3D0"/>
<path d="M65.3906 13.2188H79.0312C79.9594 13.2188 80.7188 12.4594 80.7188 11.5312C80.7188 10.6031 79.9594 9.84375 79.0312 9.84375H65.3906C64.4625 9.84375 63.7031 10.6031 63.7031 11.5312C63.7031 12.4594 64.4625 13.2188 65.3906 13.2188Z" fill="#A3C3D0"/>
<path d="M55.3218 13.2188H59.4562C60.3843 13.2188 61.1437 12.4594 61.1437 11.5312C61.1437 10.6031 60.3843 9.84375 59.4562 9.84375H55.3218C54.3937 9.84375 53.6343 10.6031 53.6343 11.5312C53.6343 12.4594 54.3937 13.2188 55.3218 13.2188Z" fill="#A3C3D0"/>
<path d="M72.8438 90.0562C75.2625 90.0562 77.2031 88.1155 77.2031 85.6968C77.2031 83.278 75.2625 81.3374 72.8438 81.3374C70.425 81.3374 68.4844 83.278 68.4844 85.6968C68.4844 88.0874 70.4531 90.028 72.8438 90.0562ZM72.8438 84.7124C73.3781 84.7124 73.8281 85.1624 73.8281 85.6968C73.8281 86.2312 73.3781 86.6812 72.8438 86.6812C72.3094 86.6812 71.8594 86.2312 71.8594 85.6968C71.8594 85.1343 72.3094 84.7124 72.8438 84.7124Z" fill="#E05E0F"/>
<path d="M140.963 105.188H98.3812C98.6344 104.456 98.7469 103.669 98.7188 102.881V100.8C98.7188 100.041 98.4375 99.3938 97.5938 99.1969V74.8688C97.6219 72.225 95.4844 70.0594 92.8125 70.0312C92.8125 70.0312 92.8125 70.0312 92.7844 70.0312H52.875C50.2313 70.0312 48.0656 72.1969 48.0938 74.8406V99.1688C47.25 99.3656 46.9688 100.012 46.9688 100.772V102.853C46.9406 103.641 47.0531 104.428 47.3062 105.159H3.09375C2.19375 105.103 1.4625 105.806 1.40625 106.678V115.369C1.40625 116.241 2.1375 116.972 3.00937 116.944H7.875V137.672C7.93125 138.656 8.71875 139.416 9.70312 139.444H134.297C135.281 139.416 136.069 138.656 136.125 137.672V117H140.906C141.778 117.056 142.538 116.353 142.594 115.481C142.594 115.453 142.594 115.425 142.594 115.425V106.791C142.594 105.891 141.863 105.188 140.963 105.188ZM51.4688 74.8688C51.4406 74.0813 52.0875 73.4344 52.875 73.4063H92.8125C93.6 73.4063 94.2188 74.0531 94.2188 74.8406V74.8688V99H51.4688V74.8688ZM50.3438 102.375H95.3438V102.881C95.3438 103.978 94.5844 104.963 93.4875 105.188H52.2C51.1031 104.963 50.3438 104.006 50.3438 102.881V102.375ZM132.75 136.125H11.25V117H132.75V136.125ZM139.219 113.625H4.78125V108.563H139.219V113.625Z" fill="#E05E0F"/>
<path d="M17.2969 124.312H18.6187C19.5469 124.312 20.3062 123.553 20.3062 122.625C20.3062 121.697 19.5469 120.938 18.6187 120.938H17.2969C16.3688 120.938 15.6094 121.697 15.6094 122.625C15.6094 123.553 16.3688 124.312 17.2969 124.312Z" fill="#E05E0F"/>
<path d="M24.9469 124.312H43.0031C43.9313 124.312 44.6906 123.553 44.6906 122.625C44.6906 121.697 43.9313 120.938 43.0031 120.938H24.9469C24.0188 120.938 23.2594 121.697 23.2594 122.625C23.2594 123.553 24.0188 124.312 24.9469 124.312Z" fill="#E05E0F"/>
</svg>
