<svg width="24" height="24" viewBox="0 0 24 24" fill="none" xmlns="http://www.w3.org/2000/svg">
<g clip-path="url(#clip0_474_19123)">
<path d="M0.323484 5.06288C0.598078 5.33743 1.04325 5.33743 1.31784 5.06288C4.88175 1.49903 10.6807 1.49903 14.2446 5.06288C14.5192 5.33748 14.9644 5.33748 15.239 5.06288C15.5136 4.78829 15.5136 4.34312 15.239 4.06853C11.1268 -0.0436752 4.43569 -0.0436752 0.323484 4.06853C0.04889 4.34312 0.04889 4.78829 0.323484 5.06288Z" fill="#225266"/>
<path d="M2.31225 6.05715C2.03766 6.33175 2.03766 6.77692 2.31225 7.05151C2.58685 7.32606 3.03202 7.32606 3.30661 7.05151C5.77791 4.58021 9.78465 4.58021 12.2559 7.05151C12.5305 7.32611 12.9757 7.32611 13.2503 7.05151C13.5249 6.77692 13.5249 6.33175 13.2503 6.05715C10.2346 3.0415 5.32786 3.0415 2.31225 6.05715Z" fill="#225266"/>
<path d="M22.3594 9.42187L12.2276 9.42187C11.4362 7.76048 9.74072 6.60937 7.78125 6.60937C5.82178 6.60937 4.12627 7.76048 3.33492 9.42188H1.64063C0.735984 9.42188 0 10.1579 0 11.0625L0 17.625C0 18.5296 0.735984 19.2656 1.64063 19.2656H2.34375L2.34375 22.3125C2.34375 22.7008 2.65856 23.0156 3.04688 23.0156L20.9531 23.0156C21.3414 23.0156 21.6563 22.7008 21.6563 22.3125V19.2656H22.3594C23.264 19.2656 24 18.5296 24 17.625V11.0625C24 10.1579 23.264 9.42187 22.3594 9.42187ZM7.78125 8.01562C9.71977 8.01562 11.2969 9.59273 11.2969 11.5312C11.2969 13.4698 9.71977 15.0469 7.78125 15.0469C5.84273 15.0469 4.26563 13.4698 4.26563 11.5312C4.26563 9.59273 5.84273 8.01562 7.78125 8.01562ZM20.25 21.6094L3.75 21.6094V19.2656L20.25 19.2656V21.6094ZM22.5938 17.625C22.5938 17.7542 22.4886 17.8594 22.3594 17.8594L1.64063 17.8594C1.51139 17.8594 1.40625 17.7542 1.40625 17.625L1.40625 11.0625C1.40625 10.9333 1.51139 10.8281 1.64063 10.8281H2.90981C2.87681 11.0579 2.85938 11.2925 2.85938 11.5312C2.85938 14.2452 5.06733 16.4531 7.78125 16.4531C10.4952 16.4531 12.7031 14.2452 12.7031 11.5312C12.7031 11.2925 12.6857 11.0579 12.6527 10.8281L22.3594 10.8281C22.4886 10.8281 22.5938 10.9333 22.5938 11.0625V17.625Z" fill="#225266"/>
<path d="M7.78125 13.6406C8.94436 13.6406 9.89062 12.6944 9.89062 11.5312C9.89062 10.3681 8.94436 9.42188 7.78125 9.42188C6.61814 9.42188 5.67188 10.3681 5.67188 11.5312C5.67188 12.6944 6.61814 13.6406 7.78125 13.6406ZM7.78125 10.8281C8.16895 10.8281 8.48438 11.1435 8.48438 11.5312C8.48438 11.919 8.16895 12.2344 7.78125 12.2344C7.39355 12.2344 7.07812 11.919 7.07812 11.5312C7.07812 11.1435 7.39355 10.8281 7.78125 10.8281Z" fill="#225266"/>
<path d="M20.4844 15.0469L14.8125 15.0469C14.4242 15.0469 14.1094 15.3617 14.1094 15.75C14.1094 16.1383 14.4242 16.4531 14.8125 16.4531H20.4844C20.8727 16.4531 21.1875 16.1383 21.1875 15.75C21.1875 15.3617 20.8727 15.0469 20.4844 15.0469Z" fill="#225266"/>
<path d="M20.4844 12.2344L14.8125 12.2344C14.4242 12.2344 14.1094 12.5492 14.1094 12.9375C14.1094 13.3258 14.4242 13.6406 14.8125 13.6406L20.4844 13.6406C20.8727 13.6406 21.1875 13.3258 21.1875 12.9375C21.1875 12.5492 20.8727 12.2344 20.4844 12.2344Z" fill="#225266"/>
</g>
<defs>
<clipPath id="clip0_474_19123">
<rect width="24" height="24" fill="white"/>
</clipPath>
</defs>
</svg>
