<svg width="33" height="32" viewBox="0 0 33 32" fill="none" xmlns="http://www.w3.org/2000/svg">
<path d="M31.5625 17.625H28.5565C28.2939 16.7001 27.6532 15.9333 26.8125 15.5022V14.8125C26.8125 14.7071 26.807 14.603 26.7976 14.5H27.125C29.0204 14.5 30.5625 12.9579 30.5625 11.0625V3.4375C30.5625 1.54206 29.0204 0 27.125 0H5.875C3.97956 0 2.4375 1.54206 2.4375 3.4375V11.0625C2.4375 12.9579 3.97956 14.5 5.875 14.5H6.20237C6.19306 14.603 6.1875 14.7071 6.1875 14.8125V15.5022C5.34675 15.9333 4.70619 16.7001 4.4435 17.625H1.4375C0.91975 17.625 0.5 18.0447 0.5 18.5625V31.0625C0.5 31.5803 0.91975 32 1.4375 32C1.95525 32 2.375 31.5803 2.375 31.0625V23.25H4.3125V23.5625C4.3125 25.1133 5.57419 26.375 7.125 26.375H8.0625V30.125H6.5C5.98225 30.125 5.5625 30.5447 5.5625 31.0625C5.5625 31.5803 5.98225 32 6.5 32H11.5C12.0178 32 12.4375 31.5803 12.4375 31.0625C12.4375 30.5447 12.0178 30.125 11.5 30.125H9.9375V26.375H10.875C12.4258 26.375 13.6875 25.1133 13.6875 23.5625V23.2499H19.3125V23.5625C19.3125 25.1133 20.5742 26.375 22.125 26.375H23.0625V30.125H21.5C20.9822 30.125 20.5625 30.5447 20.5625 31.0625C20.5625 31.5803 20.9822 32 21.5 32H26.5C27.0178 32 27.4375 31.5803 27.4375 31.0625C27.4375 30.5447 27.0178 30.125 26.5 30.125H24.9375V26.375H25.875C27.4258 26.375 28.6875 25.1133 28.6875 23.5625V23.25H30.625V31.0625C30.625 31.5803 31.0447 32 31.5625 32C32.0803 32 32.5 31.5803 32.5 31.0625V18.5625C32.5 18.0447 32.0803 17.625 31.5625 17.625ZM2.375 21.375V19.5H4.3125V21.375H2.375ZM5.875 12.625C5.01344 12.625 4.3125 11.9241 4.3125 11.0625V3.4375C4.3125 2.57594 5.01344 1.875 5.875 1.875H27.125C27.9866 1.875 28.6875 2.57594 28.6875 3.4375V11.0625C28.6875 11.9241 27.9866 12.625 27.125 12.625H26.0247C25.3937 11.862 24.4402 11.375 23.375 11.375H20.875C19.8099 11.375 18.8564 11.862 18.2253 12.625H14.7746C14.1436 11.862 13.1901 11.375 12.1249 11.375H9.62494C8.55981 11.375 7.60631 11.862 6.97525 12.625H5.875ZM15.5625 17.6249V14.8125C15.5625 14.7071 15.557 14.603 15.5476 14.5H17.4523C17.443 14.603 17.4374 14.7071 17.4374 14.8125V17.6249H15.5625ZM11.8125 23.5625C11.8125 24.0794 11.3919 24.5 10.875 24.5H7.125C6.60806 24.5 6.1875 24.0794 6.1875 23.5625V18.5625C6.1875 17.7009 6.88844 17 7.75 17H10.25C11.1116 17 11.8125 17.7009 11.8125 18.5625V23.5625ZM10.25 15.125H8.0625V14.8125C8.0625 13.9509 8.76344 13.25 9.625 13.25H12.125C12.9866 13.25 13.6875 13.9509 13.6875 14.8125V17.6249H13.5564C13.1472 16.1839 11.8204 15.125 10.25 15.125V15.125ZM13.6875 21.3749V19.4999H19.3125V21.3749H13.6875ZM19.4436 17.6249H19.3125V14.8125C19.3125 13.9509 20.0134 13.25 20.875 13.25H23.375C24.2366 13.25 24.9375 13.9509 24.9375 14.8125V15.125H22.75C21.1796 15.125 19.8527 16.1839 19.4436 17.6249ZM26.8125 23.5625C26.8125 24.0794 26.3919 24.5 25.875 24.5H22.125C21.6081 24.5 21.1875 24.0794 21.1875 23.5625V18.5625C21.1875 17.7009 21.8884 17 22.75 17H25.25C26.1116 17 26.8125 17.7009 26.8125 18.5625V23.5625ZM28.6875 19.5H30.625V21.375H28.6875V19.5Z" fill="#726D6A"/>
</svg>
