<svg width="33" height="32" viewBox="0 0 33 32" fill="none" xmlns="http://www.w3.org/2000/svg">
<path d="M29.6953 25.5211C30.2758 24.8184 30.625 23.918 30.625 22.9375C30.625 20.6974 28.8026 18.875 26.5625 18.875C24.3224 18.875 22.5 20.6974 22.5 22.9375C22.5 23.918 22.8492 24.8184 23.4297 25.5211C23.0656 25.6815 22.7259 25.8869 22.4172 26.1302L18.9823 22.383C19.1928 21.989 19.3125 21.5396 19.3125 21.0625C19.3125 19.8403 18.5287 18.7982 17.4375 18.4112V13.125H21.5C22.0178 13.125 22.4375 12.7053 22.4375 12.1875V10.9375C22.4375 9.02231 21.2824 7.37275 19.6328 6.64612C20.2133 5.94344 20.5625 5.043 20.5625 4.0625C20.5625 1.82244 18.7401 0 16.5 0C14.2599 0 12.4375 1.82244 12.4375 4.0625C12.4375 5.043 12.7867 5.94344 13.3672 6.64612C11.7176 7.37275 10.5625 9.02231 10.5625 10.9375V12.1875C10.5625 12.7053 10.9822 13.125 11.5 13.125H15.5625V18.4112C14.4713 18.7982 13.6875 19.8403 13.6875 21.0625C13.6875 21.5396 13.8072 21.989 14.0177 22.383L10.5829 26.1302C10.2741 25.8869 9.93444 25.6815 9.57038 25.5211C10.1508 24.8184 10.5 23.918 10.5 22.9375C10.5 20.6974 8.67756 18.875 6.4375 18.875C4.19744 18.875 2.375 20.6974 2.375 22.9375C2.375 23.918 2.72419 24.8184 3.30469 25.5211C1.65506 26.2478 0.5 27.8973 0.5 29.8125V31.0625C0.5 31.5803 0.91975 32 1.4375 32H11.4375C11.9553 32 12.375 31.5803 12.375 31.0625V29.8125C12.375 29.0017 12.1679 28.2385 11.8041 27.5726L15.3994 23.6505C15.7376 23.7949 16.1096 23.875 16.5 23.875C16.8904 23.875 17.2624 23.7949 17.6006 23.6505L21.1959 27.5726C20.8321 28.2385 20.625 29.0017 20.625 29.8125V31.0625C20.625 31.5803 21.0447 32 21.5625 32H31.5625C32.0803 32 32.5 31.5803 32.5 31.0625V29.8125C32.5 27.8973 31.3449 26.2478 29.6953 25.5211V25.5211ZM16.5 1.875C17.7062 1.875 18.6875 2.85631 18.6875 4.0625C18.6875 5.26869 17.7062 6.25 16.5 6.25C15.2938 6.25 14.3125 5.26869 14.3125 4.0625C14.3125 2.85631 15.2938 1.875 16.5 1.875ZM12.4375 10.9375C12.4375 9.38669 13.6992 8.125 15.25 8.125H17.75C19.3008 8.125 20.5625 9.38669 20.5625 10.9375V11.25H12.4375V10.9375ZM26.5625 20.75C27.7687 20.75 28.75 21.7313 28.75 22.9375C28.75 24.1437 27.7687 25.125 26.5625 25.125C25.3563 25.125 24.375 24.1437 24.375 22.9375C24.375 21.7313 25.3563 20.75 26.5625 20.75ZM6.4375 20.75C7.64369 20.75 8.625 21.7313 8.625 22.9375C8.625 24.1437 7.64369 25.125 6.4375 25.125C5.23131 25.125 4.25 24.1437 4.25 22.9375C4.25 21.7313 5.23131 20.75 6.4375 20.75ZM10.5 30.125H2.375V29.8125C2.375 28.2617 3.63669 27 5.1875 27H7.6875C9.23831 27 10.5 28.2617 10.5 29.8125V30.125ZM15.5625 21.0625C15.5625 20.5456 15.9831 20.125 16.5 20.125C17.0169 20.125 17.4375 20.5456 17.4375 21.0625C17.4375 21.5794 17.0169 22 16.5 22C15.9831 22 15.5625 21.5794 15.5625 21.0625ZM30.625 30.125H22.5V29.8125C22.5 28.2617 23.7617 27 25.3125 27H27.8125C29.3633 27 30.625 28.2617 30.625 29.8125V30.125Z" fill="white"/>
</svg>
