<svg width="17" height="16" viewBox="0 0 17 16" fill="none" xmlns="http://www.w3.org/2000/svg">
<path fill-rule="evenodd" clip-rule="evenodd" d="M8.49998 14.4001C12.0346 14.4001 14.9 11.5347 14.9 8.0001C14.9 4.46548 12.0346 1.6001 8.49998 1.6001C4.96535 1.6001 2.09998 4.46548 2.09998 8.0001C2.09998 11.5347 4.96535 14.4001 8.49998 14.4001ZM11.4657 6.96578C11.7781 6.65336 11.7781 6.14683 11.4657 5.83441C11.1532 5.52199 10.6467 5.52199 10.3343 5.83441L7.69998 8.46873L6.66566 7.43441C6.35324 7.12199 5.84671 7.12199 5.53429 7.43441C5.22187 7.74683 5.22187 8.25336 5.53429 8.56578L7.13429 10.1658C7.44671 10.4782 7.95324 10.4782 8.26566 10.1658L11.4657 6.96578Z" fill="#F4C2A5"/>
</svg>
