<svg width="34" height="34" viewBox="0 0 34 34" fill="none" xmlns="http://www.w3.org/2000/svg">
<path d="M15.3832 6.67565C15.8921 5.10942 18.1079 5.10942 18.6168 6.67565L20.4351 12.2717C20.6626 12.9721 21.3154 13.4464 22.0519 13.4464H27.9359C29.5827 13.4464 30.2674 15.5537 28.9351 16.5217L24.1748 19.9803C23.579 20.4131 23.3297 21.1805 23.5573 21.8809L25.3756 27.477C25.8845 29.0432 24.0918 30.3456 22.7595 29.3776L17.9992 25.9191C17.4034 25.4862 16.5966 25.4862 16.0008 25.9191L11.2405 29.3776C9.90816 30.3456 8.11555 29.0432 8.62444 27.477L10.4427 21.8809C10.6703 21.1805 10.421 20.4131 9.82515 19.9803L5.06486 16.5217C3.73255 15.5537 4.41727 13.4464 6.0641 13.4464H11.9481C12.6846 13.4464 13.3373 12.9721 13.5649 12.2717L15.3832 6.67565Z" fill="#F4C2A5"/>
</svg>
