<svg width="24" height="24" viewBox="0 0 24 24" fill="none" xmlns="http://www.w3.org/2000/svg">
<g clip-path="url(#clip0_474_19124)">
<path d="M23.2969 13.2187H21.0424C20.8454 12.525 20.3649 11.9499 19.7344 11.6266V11.1094C19.7344 11.0303 19.7302 10.9522 19.7232 10.875H19.9688C21.3903 10.875 22.5469 9.71845 22.5469 8.29687V2.57812C22.5469 1.15655 21.3903 0 19.9688 0L4.03125 0C2.60967 0 1.45313 1.15655 1.45313 2.57812L1.45313 8.29688C1.45313 9.71845 2.60967 10.875 4.03125 10.875H4.27678C4.2698 10.9522 4.26563 11.0303 4.26563 11.1094V11.6266C3.63506 11.9499 3.15464 12.525 2.95762 13.2188H0.703125C0.314812 13.2188 0 13.5336 0 13.9219L0 23.2969C0 23.6852 0.314812 24 0.703125 24C1.09144 24 1.40625 23.6852 1.40625 23.2969L1.40625 17.4375H2.85938V17.6719C2.85938 18.835 3.80564 19.7812 4.96875 19.7812H5.67188V22.5938H4.5C4.11169 22.5938 3.79688 22.9086 3.79688 23.2969C3.79688 23.6852 4.11169 24 4.5 24H8.25C8.63831 24 8.95313 23.6852 8.95313 23.2969C8.95313 22.9086 8.63831 22.5938 8.25 22.5938H7.07813V19.7812H7.78125C8.94436 19.7812 9.89063 18.835 9.89063 17.6719V17.4375L14.1094 17.4375V17.6719C14.1094 18.835 15.0556 19.7812 16.2188 19.7812H16.9219V22.5937H15.75C15.3617 22.5937 15.0469 22.9086 15.0469 23.2969C15.0469 23.6852 15.3617 24 15.75 24H19.5C19.8883 24 20.2031 23.6852 20.2031 23.2969C20.2031 22.9086 19.8883 22.5937 19.5 22.5937H18.3281V19.7812H19.0313C20.1944 19.7812 21.1406 18.835 21.1406 17.6719V17.4375H22.5938V23.2969C22.5938 23.6852 22.9086 24 23.2969 24C23.6852 24 24 23.6852 24 23.2969V13.9219C24 13.5336 23.6852 13.2187 23.2969 13.2187ZM1.40625 16.0312L1.40625 14.625H2.85938L2.85938 16.0312H1.40625ZM4.03125 9.46875C3.38508 9.46875 2.85938 8.94305 2.85938 8.29688L2.85938 2.57812C2.85938 1.93195 3.38508 1.40625 4.03125 1.40625L19.9688 1.40625C20.6149 1.40625 21.1406 1.93195 21.1406 2.57812V8.29687C21.1406 8.94305 20.6149 9.46875 19.9688 9.46875H19.1435C18.6703 8.8965 17.9551 8.53125 17.1562 8.53125L15.2813 8.53125C14.4824 8.53125 13.7673 8.8965 13.294 9.46875H10.706C10.2327 8.8965 9.51759 8.53125 8.7187 8.53125H6.8437C6.04486 8.53125 5.32973 8.8965 4.85644 9.46875H4.03125ZM11.2969 13.2187V11.1094C11.2969 11.0303 11.2927 10.9522 11.2857 10.875H12.7142C12.7072 10.9522 12.7031 11.0303 12.7031 11.1094V13.2187H11.2969ZM8.48438 17.6719C8.48438 18.0596 8.16895 18.375 7.78125 18.375H4.96875C4.58105 18.375 4.26563 18.0596 4.26563 17.6719V13.9219C4.26563 13.2757 4.79133 12.75 5.4375 12.75L7.3125 12.75C7.95867 12.75 8.48438 13.2757 8.48438 13.9219L8.48438 17.6719ZM7.3125 11.3437H5.67188V11.1094C5.67188 10.4632 6.19758 9.9375 6.84375 9.9375H8.71875C9.36492 9.9375 9.89063 10.4632 9.89063 11.1094V13.2187H9.79233C9.48544 12.138 8.49028 11.3437 7.3125 11.3437ZM9.89063 16.0312V14.625H14.1094V16.0312L9.89063 16.0312ZM14.2077 13.2187H14.1094V11.1094C14.1094 10.4632 14.6351 9.9375 15.2813 9.9375L17.1562 9.9375C17.8024 9.9375 18.3281 10.4632 18.3281 11.1094V11.3437H16.6875C15.5097 11.3437 14.5146 12.138 14.2077 13.2187ZM19.7344 17.6719C19.7344 18.0596 19.419 18.375 19.0313 18.375H16.2188C15.831 18.375 15.5156 18.0596 15.5156 17.6719L15.5156 13.9219C15.5156 13.2757 16.0413 12.75 16.6875 12.75H18.5625C19.2087 12.75 19.7344 13.2757 19.7344 13.9219V17.6719ZM21.1406 14.625H22.5938V16.0312H21.1406V14.625Z" fill="#225266"/>
</g>
<defs>
<clipPath id="clip0_474_19124">
<rect width="24" height="24" fill="white"/>
</clipPath>
</defs>
</svg>
