<svg width="144" height="144" viewBox="0 0 144 144" fill="none" xmlns="http://www.w3.org/2000/svg">
<path d="M23.1075 45.2812H14.67L2.73656 73.6875H2.81249V79.875H11.25V73.6875H11.1741L23.1075 45.2812Z" fill="#DBEFD4"/>
<path d="M142.819 73.0284L130.885 44.6193C130.756 44.3139 130.54 44.0536 130.263 43.871C129.986 43.6885 129.662 43.592 129.33 43.5936H125.156V33.7695C125.156 27.0707 119.788 21.3748 113.394 21.3748H111.996C115.53 19.9686 118.013 16.3014 118.013 12.1653C118.03 10.8549 117.787 9.55408 117.298 8.33836C116.808 7.12264 116.082 6.01621 115.162 5.0833C114.241 4.15038 113.145 3.40956 111.936 2.90382C110.727 2.39808 109.43 2.13751 108.119 2.13721C106.808 2.13691 105.511 2.3969 104.302 2.90209C103.093 3.40727 101.996 4.1476 101.075 5.08009C100.154 6.01259 99.4276 7.11868 98.9377 8.33418C98.4478 9.54969 98.2041 10.8504 98.221 12.1608C98.221 16.2969 100.703 19.9686 104.235 21.3748H102.839C96.4451 21.3748 91.125 27.0707 91.125 33.7695V43.5936H89.1563V33.7695C89.1563 27.0707 83.6719 21.3748 77.2791 21.3748H75.8813C79.414 19.9686 81.8958 16.3014 81.8958 12.1653C81.8944 6.63339 77.4563 2.1421 72 2.1421C69.3599 2.1604 66.8351 3.22577 64.9799 5.10424C63.1247 6.98272 62.091 9.5207 62.1056 12.1608C62.1056 16.2969 64.5874 19.9686 68.1202 21.3748H66.7209C60.3281 21.3748 54.8438 27.0707 54.8438 33.7695V43.5936H52.875V33.7695C52.875 27.0707 47.5549 21.3748 41.1609 21.3748H39.7645C43.2973 19.9686 45.7791 16.3014 45.7791 12.1653C45.7791 6.63339 41.3404 2.1421 35.8847 2.1421C33.2442 2.16002 30.7189 3.22519 28.8632 5.10366C27.0075 6.98214 25.9732 9.52033 25.9875 12.1608C25.9875 16.2969 28.4701 19.9686 32.0037 21.3748H30.6056C24.2117 21.3748 18.8438 27.0707 18.8438 33.7695V43.5936H14.67C14.3386 43.5913 14.014 43.6872 13.7371 43.8693C13.4602 44.0513 13.2434 44.3113 13.1141 44.6165L1.18125 73.034C1.08892 73.2391 1.04448 73.4625 1.05131 73.6873H1.125V79.9677C1.11823 80.1803 1.15542 80.3921 1.23423 80.5898C1.31305 80.7875 1.4318 80.9667 1.58306 81.1164C1.73432 81.2661 1.91483 81.3829 2.11331 81.4597C2.31178 81.5364 2.52396 81.5714 2.73656 81.5623H11.8125V115.411C11.8074 115.624 11.8463 115.836 11.9267 116.033C12.0071 116.231 12.1273 116.41 12.2798 116.559C12.4322 116.708 12.6138 116.824 12.8131 116.9C13.0124 116.976 13.2251 117.01 13.4381 117H21.7603C21.9712 117.009 22.1817 116.974 22.3783 116.898C22.575 116.821 22.7535 116.704 22.9025 116.555C23.0515 116.405 23.1677 116.226 23.2437 116.029C23.3196 115.832 23.3537 115.622 23.3438 115.411V81.5623H51.75V78.1873H4.5V75.3748H20.0666C20.5142 75.3748 20.9434 75.1971 21.2599 74.8806C21.5763 74.5641 21.7541 74.1349 21.7541 73.6873C21.7541 73.2398 21.5763 72.8106 21.2599 72.4941C20.9434 72.1776 20.5142 71.9998 20.0666 71.9998H5.27541L15.7916 46.9686H128.207L138.723 71.9998H92.3991C91.9515 71.9998 91.5223 72.1776 91.2058 72.4941C90.8894 72.8106 90.7116 73.2398 90.7116 73.6873C90.7116 74.1349 90.8894 74.5641 91.2058 74.8806C91.5223 75.1971 91.9515 75.3748 92.3991 75.3748H139.5V78.1873H92.5313V81.5623H120.656V115.411C120.656 116.343 121.553 117 122.484 117H130.807C131.021 117.01 131.236 116.977 131.438 116.902C131.639 116.827 131.824 116.711 131.979 116.562C132.135 116.414 132.258 116.235 132.342 116.037C132.427 115.839 132.47 115.626 132.469 115.411V81.5623H141.263C141.476 81.5714 141.688 81.5364 141.887 81.4597C142.085 81.3829 142.266 81.2661 142.417 81.1164C142.568 80.9667 142.687 80.7875 142.766 80.5898C142.845 80.3921 142.882 80.1803 142.875 79.9677V73.6873H142.949C142.955 73.4607 142.911 73.2355 142.819 73.0284ZM101.596 12.1836C101.623 10.8996 102.028 9.65199 102.76 8.59727C103.493 7.54255 104.521 6.72763 105.715 6.25471C106.909 5.78178 108.216 5.67189 109.472 5.93881C110.729 6.20574 111.878 6.83761 112.777 7.75518C113.675 8.67275 114.283 9.83518 114.523 11.0967C114.764 12.3583 114.627 13.6628 114.129 14.8466C113.631 16.0305 112.795 17.0411 111.725 17.7516C110.655 18.4622 109.4 18.841 108.115 18.8408C106.369 18.8204 104.701 18.108 103.479 16.86C102.257 15.612 101.58 13.9303 101.596 12.1836ZM65.4806 12.1836C65.4626 11.316 65.6179 10.4536 65.9375 9.6469C66.257 8.84016 66.7343 8.1053 67.3415 7.4854C67.9487 6.86549 68.6734 6.373 69.4734 6.03678C70.2733 5.70056 71.1323 5.52737 72 5.52737C72.8677 5.52737 73.7267 5.70056 74.5266 6.03678C75.3266 6.373 76.0514 6.86549 76.6585 7.4854C77.2657 8.1053 77.743 8.84016 78.0626 9.6469C78.3821 10.4536 78.5374 11.316 78.5194 12.1836C78.5374 13.0511 78.3821 13.9135 78.0626 14.7202C77.743 15.527 77.2657 16.2618 76.6585 16.8818C76.0514 17.5017 75.3266 17.9942 74.5266 18.3304C73.7267 18.6666 72.8677 18.8398 72 18.8398C71.1323 18.8398 70.2733 18.6666 69.4734 18.3304C68.6734 17.9942 67.9487 17.5017 67.3415 16.8818C66.7343 16.2618 66.257 15.527 65.9375 14.7202C65.6179 13.9135 65.4626 13.0511 65.4806 12.1836ZM29.3625 12.1836C29.3891 10.8997 29.7941 9.65222 30.5267 8.59756C31.2593 7.5429 32.287 6.72798 33.4809 6.25496C34.6747 5.78195 35.9817 5.6719 37.2379 5.9386C38.494 6.20529 39.6435 6.83688 40.5422 7.75417C41.4409 8.67146 42.0488 9.83364 42.2897 11.095C42.5306 12.3564 42.3938 13.6608 41.8964 14.8447C41.3991 16.0286 40.5633 17.0394 39.4938 17.7503C38.4244 18.4611 37.1688 18.8405 35.8847 18.8408C34.1377 18.8207 32.4699 18.1086 31.2472 16.8606C30.0245 15.6126 29.3467 13.9306 29.3625 12.1836ZM19.9688 113.625H15.1875V81.5623H19.9688V113.625ZM109.671 37.2626L108.116 38.1626L106.56 37.2775L107.916 29.8123H108.325L109.671 37.2626ZM108.426 26.4373H107.807L107.416 24.7498H108.818L108.426 26.4373ZM94.5 33.7695C94.5 28.984 98.3531 24.7498 102.839 24.7498H103.93L104.775 28.0509L103.032 37.7332C102.971 38.0708 103.014 38.419 103.156 38.7315C103.297 39.0441 103.53 39.3064 103.824 39.4837L107.247 41.5419C107.509 41.6999 107.809 41.7836 108.115 41.784C108.421 41.7844 108.721 41.7015 108.984 41.5441L112.406 39.491C112.7 39.315 112.933 39.0539 113.074 38.7425C113.216 38.4311 113.259 38.084 113.199 37.7472L111.459 28.0329L112.303 24.7498H113.394C117.88 24.7498 121.781 28.984 121.781 33.7695V43.5936H94.5V33.7695ZM73.5562 37.2626L72.0006 38.1626L70.4447 37.2775L71.7989 29.8123H72.2081L73.5562 37.2626ZM72.3094 26.4373H71.6873L71.2969 24.7498H72.7031L72.3094 26.4373ZM58.2188 33.7695C58.2188 28.984 62.2367 24.7498 66.7209 24.7498H67.8119L68.6588 28.057L66.9164 37.7321C66.8557 38.0697 66.8989 38.4178 67.0403 38.7304C67.1818 39.043 67.4147 39.3052 67.7084 39.4826L71.1312 41.5407C71.3932 41.6988 71.6933 41.7825 71.9993 41.7829C72.3052 41.7833 72.6055 41.7004 72.8679 41.543L76.2908 39.4899C76.5841 39.3139 76.8171 39.0529 76.9587 38.7414C77.1004 38.43 77.144 38.0829 77.0839 37.7461L75.3449 28.0329L76.1887 24.7495H77.2796C81.7633 24.7498 85.7813 28.984 85.7813 33.7695V43.5936H58.2188V33.7695ZM37.4408 37.2621L35.8833 38.1621L34.3291 37.2775L35.6836 29.8123H36.0931L37.4408 37.2621ZM36.1938 26.4373H35.5728L35.1818 24.7498H36.5853L36.1938 26.4373ZM22.2188 33.7695C22.2188 28.984 26.12 24.7498 30.6056 24.7498H31.6969L32.5437 28.057L30.8014 37.7321C30.7406 38.0696 30.7838 38.4176 30.9251 38.7302C31.0664 39.0427 31.2992 39.3049 31.5928 39.4823L35.0128 41.5405C35.2748 41.6986 35.5749 41.7824 35.8809 41.7829C36.1869 41.7834 36.4873 41.7006 36.7498 41.5433L40.1752 39.4901C40.4686 39.3142 40.7017 39.0533 40.8435 38.7418C40.9852 38.4304 41.0289 38.0832 40.9688 37.7464L39.2296 28.032L40.0705 24.7498H41.1609C45.6469 24.7498 49.5 28.984 49.5 33.7695V43.5936H22.2188V33.7695ZM129.094 113.625H124.031V81.5623H129.094V113.625Z" fill="#A3C3D0"/>
<path d="M51.7922 72H29.3625C28.915 72 28.4857 72.1778 28.1693 72.4943C27.8528 72.8107 27.675 73.2399 27.675 73.6875C27.675 74.1351 27.8528 74.5643 28.1693 74.8807C28.4857 75.1972 28.915 75.375 29.3625 75.375H51.7922C52.2397 75.375 52.669 75.1972 52.9854 74.8807C53.3019 74.5643 53.4797 74.1351 53.4797 73.6875C53.4797 73.2399 53.3019 72.8107 52.9854 72.4943C52.669 72.1778 52.2397 72 51.7922 72Z" fill="#A3C3D0"/>
<path d="M19.2825 50.9062C18.8349 50.9062 18.4057 51.084 18.0893 51.4005C17.7728 51.717 17.595 52.1462 17.595 52.5938C17.595 53.0413 17.7728 53.4705 18.0893 53.787C18.4057 54.1035 18.8349 54.2812 19.2825 54.2812H21.4228C21.8704 54.2812 22.2996 54.1035 22.6161 53.787C22.9325 53.4705 23.1103 53.0413 23.1103 52.5938C23.1103 52.1462 22.9325 51.717 22.6161 51.4005C22.2996 51.084 21.8704 50.9062 21.4228 50.9062H19.2825Z" fill="#A3C3D0"/>
<path d="M53.3672 52.5938C53.3672 52.1462 53.1894 51.717 52.8729 51.4005C52.5565 51.084 52.1272 50.9062 51.6797 50.9062H27.0675C26.62 50.9062 26.1907 51.084 25.8743 51.4005C25.5578 51.717 25.38 52.1462 25.38 52.5938C25.38 53.0413 25.5578 53.4705 25.8743 53.787C26.1907 54.1035 26.62 54.2812 27.0675 54.2812H51.6797C52.1272 54.2812 52.5565 54.1035 52.8729 53.787C53.1894 53.4705 53.3672 53.0413 53.3672 52.5938Z" fill="#A3C3D0"/>
<path d="M99.8128 88.5937H94.2187V74.1797C94.2148 73.924 94.1912 73.669 94.1481 73.4169C93.957 72.2418 93.3559 71.1723 92.4514 70.3981C91.5469 69.6238 90.3974 69.195 89.2068 69.1875H86.3561C85.5377 67.6575 84.3662 66.3449 82.9387 65.3584C81.5113 64.372 79.8692 63.7403 78.1487 63.5158C79.4642 62.5614 80.5351 61.3091 81.2736 59.8614C82.0121 58.4136 82.3974 56.8116 82.3978 55.1863C82.3978 49.4511 77.6787 44.606 72.0928 44.606C66.5069 44.606 61.7878 49.4516 61.7878 55.1869C61.7884 56.8121 62.1737 58.414 62.9124 59.8617C63.651 61.3094 64.7219 62.5615 66.0375 63.5158C64.3166 63.7397 62.674 64.3711 61.2463 65.3576C59.8185 66.3441 58.6468 67.6571 57.8286 69.1875H54.9787C54.3204 69.1643 53.6644 69.2782 53.0524 69.5219C52.4404 69.7656 51.8857 70.1338 51.4235 70.6031C50.9613 71.0725 50.6016 71.6328 50.3673 72.2485C50.133 72.8641 50.0292 73.5218 50.0625 74.1797V88.5937H44.1872C43.6713 88.5866 43.1592 88.6819 42.6804 88.8739C42.2016 89.0659 41.7656 89.351 41.3976 89.7125C41.0296 90.0741 40.737 90.505 40.5366 90.9804C40.3362 91.4557 40.232 91.9661 40.23 92.482C40.2306 93.5341 40.6467 94.5433 41.3879 95.29C42.129 96.0367 43.1352 96.4604 44.1872 96.4687H44.4375V113.122C44.4376 113.748 44.5622 114.368 44.8041 114.946C45.046 115.523 45.4004 116.047 45.8467 116.486C46.2929 116.926 46.8221 117.272 47.4034 117.505C47.9847 117.738 48.6066 117.853 49.2328 117.844H50.0203C50.1405 119.069 50.7095 120.206 51.6178 121.037C52.526 121.867 53.7094 122.333 54.9402 122.344H66.9375V131.344H65.5819C64.6448 131.344 63.7172 131.53 62.8527 131.892C61.9881 132.253 61.2038 132.782 60.5452 133.449C59.8865 134.115 59.3666 134.906 59.0156 135.774C58.6645 136.643 58.4893 137.573 58.5 138.51V140.161C58.4896 140.371 58.5231 140.582 58.5986 140.779C58.674 140.975 58.7897 141.154 58.9382 141.304C59.0867 141.453 59.2647 141.57 59.4609 141.647C59.6572 141.724 59.8673 141.759 60.0778 141.75H84.2006C84.4113 141.759 84.6214 141.724 84.8178 141.647C85.0141 141.57 85.1923 141.453 85.3409 141.304C85.4896 141.154 85.6056 140.975 85.6814 140.779C85.7572 140.582 85.7912 140.372 85.7812 140.161V138.51C85.7916 137.573 85.6161 136.643 85.2648 135.774C84.9134 134.905 84.3933 134.115 83.7344 133.448C83.0755 132.782 82.291 132.253 81.4263 131.891C80.5615 131.53 79.6337 131.344 78.6965 131.344H77.3437V122.344H89.2434C90.4745 122.333 91.6581 121.868 92.5667 121.037C93.4753 120.206 94.0446 119.069 94.1653 117.844H94.7663C95.3926 117.853 96.0145 117.738 96.596 117.505C97.1774 117.272 97.7067 116.926 98.153 116.487C98.5993 116.047 98.9538 115.523 99.1958 114.946C99.4377 114.368 99.5624 113.748 99.5625 113.122V96.4687H99.8128C100.336 96.4607 100.852 96.3498 101.331 96.1423C101.811 95.9348 102.245 95.6348 102.609 95.2594C102.977 94.9018 103.27 94.4739 103.469 94.0012C103.668 93.5284 103.771 93.0204 103.77 92.5073C103.769 91.9901 103.665 91.4782 103.465 91.0012C103.265 90.5241 102.973 90.0913 102.605 89.7276C102.238 89.3639 101.801 89.0765 101.322 88.8819C100.843 88.6873 100.33 88.5894 99.8128 88.5937ZM72.0928 47.9812C75.8494 47.9812 79.0228 51.2811 79.0228 55.1869C79.0228 57.0248 78.2927 58.7875 76.993 60.0871C75.6934 61.3867 73.9307 62.1169 72.0928 62.1169C70.2548 62.1169 68.4922 61.3867 67.1925 60.0871C65.8929 58.7875 65.1628 57.0248 65.1628 55.1869C65.1628 51.2811 68.3364 47.9812 72.0928 47.9812ZM67.3509 66.9375H76.8347C77.8409 66.9362 78.8374 67.1344 79.7665 67.5206C80.6956 67.9068 81.539 68.4734 82.2479 69.1875H61.936C62.6451 68.4731 63.4887 67.9065 64.4182 67.5202C65.3476 67.134 66.3444 66.936 67.3509 66.9375ZM53.4375 74.1797C53.4038 73.9662 53.4198 73.7479 53.4841 73.5416C53.5485 73.3354 53.6595 73.1467 53.8086 72.9903C53.9576 72.8339 54.1408 72.7139 54.3437 72.6397C54.5466 72.5655 54.7639 72.5391 54.9787 72.5625H89.2068C89.6322 72.5794 90.0359 72.7547 90.3387 73.0539C90.6415 73.3531 90.8216 73.7546 90.8437 74.1797V99.3825C90.837 99.8099 90.6608 100.217 90.3538 100.515C90.0468 100.812 89.6343 100.975 89.2068 100.969H54.9787C54.7721 100.97 54.5673 100.93 54.3767 100.85C54.1861 100.77 54.0136 100.653 53.8696 100.505C53.7256 100.356 53.6131 100.181 53.5388 99.9877C53.4645 99.7949 53.4301 99.589 53.4375 99.3825V74.1797ZM56.8125 108.706V104.344H66.0937V110.25H58.3031C57.9055 110.229 57.5307 110.058 57.2541 109.771C56.9775 109.485 56.8197 109.104 56.8125 108.706ZM69.4687 104.344H74.8125V110.25H69.4687V104.344ZM78.1875 104.344H86.625V108.706C86.6094 109.108 86.444 109.489 86.1614 109.775C85.8787 110.06 85.4993 110.23 85.0978 110.25H78.1875V104.344ZM43.7774 92.8721C43.723 92.8281 43.6792 92.7723 43.6494 92.709C43.6195 92.6457 43.6044 92.5765 43.605 92.5065C43.607 92.4326 43.6237 92.3599 43.6542 92.2927C43.6847 92.2254 43.7284 92.1649 43.7827 92.1148C43.8369 92.0647 43.9007 92.0259 43.9701 92.0008C44.0396 91.9758 44.1134 91.9648 44.1872 91.9687H50.0625V93.0937H44.1872C44.1074 93.0865 44.03 93.0631 43.9595 93.025C43.8891 92.9869 43.8271 92.9349 43.7774 92.8721ZM47.8125 113.122V96.4687H50.0625V99.3825C50.05 100.431 50.3698 101.456 50.9762 102.311C51.5825 103.167 52.4441 103.808 53.4375 104.143V108.706C53.4464 109.234 53.5477 109.757 53.7367 110.25C52.7661 110.5 51.8929 111.036 51.2302 111.788C50.5676 112.54 50.146 113.474 50.02 114.469H49.2325C49.0495 114.479 48.8665 114.451 48.6944 114.388C48.5224 114.325 48.3651 114.227 48.2322 114.101C48.0993 113.975 47.9935 113.823 47.9213 113.655C47.8491 113.486 47.8121 113.305 47.8125 113.122V113.122ZM82.5128 138.375H61.7653C61.8018 137.389 62.2206 136.456 62.933 135.774C63.6453 135.091 64.5954 134.713 65.5819 134.719H78.6965C79.6831 134.713 80.6333 135.091 81.3457 135.773C82.0581 136.456 82.4767 137.389 82.5128 138.375ZM73.9687 131.344H70.3125V122.344H73.9687V131.344ZM90.8437 117.405C90.8326 117.823 90.6593 118.219 90.3606 118.511C90.0618 118.803 89.6611 118.967 89.2434 118.969H54.9394C54.737 118.968 54.5367 118.927 54.3506 118.848C54.1645 118.768 53.9963 118.652 53.8561 118.506C53.7159 118.36 53.6065 118.187 53.5346 117.998C53.4627 117.809 53.4297 117.607 53.4375 117.405V115.102C53.4315 114.904 53.4664 114.707 53.54 114.523C53.6137 114.34 53.7246 114.174 53.8656 114.035C54.0066 113.896 54.1748 113.788 54.3596 113.718C54.5444 113.647 54.7418 113.616 54.9394 113.625H89.2434C89.4456 113.616 89.6476 113.647 89.8377 113.717C90.0278 113.786 90.2022 113.893 90.351 114.03C90.4998 114.167 90.6199 114.333 90.7044 114.517C90.789 114.7 90.8363 114.899 90.8437 115.102V117.405ZM96.1875 113.122C96.1879 113.305 96.1508 113.486 96.0786 113.655C96.0065 113.823 95.9006 113.975 95.7677 114.101C95.6347 114.227 95.4774 114.325 95.3053 114.388C95.1333 114.451 94.9502 114.479 94.7672 114.469H94.1659C94.0336 113.347 93.5212 112.303 92.7139 111.513C91.9066 110.722 90.853 110.232 89.7283 110.123C89.8943 109.669 89.986 109.19 90 108.706V104.316C91.1674 104.113 92.2275 103.509 92.9976 102.609C93.7677 101.708 94.1995 100.567 94.2187 99.3825V96.4687H96.1875V113.122ZM100.223 92.8715C100.173 92.9342 100.111 92.9861 100.04 93.0242C99.9699 93.0622 99.8925 93.0856 99.8128 93.0929H94.2187V91.9679H99.8128C99.8866 91.964 99.9604 91.9749 100.03 92C100.099 92.0251 100.163 92.0639 100.217 92.1141C100.272 92.1642 100.315 92.2247 100.346 92.292C100.376 92.3593 100.393 92.4321 100.395 92.5059C100.396 92.576 100.381 92.6454 100.351 92.7089C100.321 92.7723 100.277 92.8282 100.223 92.8724V92.8715Z" fill="#E05E0F"/>
</svg>
