<?xml version="1.0" encoding="UTF-8"?> <svg xmlns="http://www.w3.org/2000/svg" width="194" height="50" fill="none"><g clip-path="url(#a)" fill-rule="evenodd" clip-rule="evenodd"><path d="M54.578 27.586V15.503h1.498v11.71a3.388 3.388 0 0 0 .541 1.9 3.356 3.356 0 0 0 5.205.555c.605-.581.96-1.378.99-2.22V15.503h1.497v11.904a4.726 4.726 0 0 1-1.374 3.283 4.837 4.837 0 0 1-3.436 1.437 4.823 4.823 0 0 1-3.436-1.437 5.944 5.944 0 0 1-.674-.8c-.2.286-.426.553-.673.8a4.846 4.846 0 0 1-5.188 1.05 4.855 4.855 0 0 1-2.17-1.71 4.88 4.88 0 0 1-.889-2.623V15.462h1.498v11.945c.04.842.399 1.636 1.004 2.22a3.365 3.365 0 0 0 3.524.786 3.369 3.369 0 0 0 1.52-1.112c.39-.508.629-1.117.687-1.756l-.124.041Zm22.885-13.572a9.134 9.134 0 0 1 5.819 2.04 9.192 9.192 0 0 1 3.21 5.281 9.215 9.215 0 0 1-.854 6.126 9.166 9.166 0 0 1-4.531 4.194 9.123 9.123 0 0 1-6.154.36 9.156 9.156 0 0 1-4.986-3.638 9.21 9.21 0 0 1 1.022-11.605 8.823 8.823 0 0 1 6.474-2.758Zm0 1.6a7.543 7.543 0 0 0-4.79 1.73 7.61 7.61 0 0 0-1.855 9.44 7.57 7.57 0 0 0 3.776 3.428 7.534 7.534 0 0 0 5.086.245 7.561 7.561 0 0 0 4.087-3.047 7.607 7.607 0 0 0-.944-9.576 7.298 7.298 0 0 0-5.36-2.22Zm13.166-.11h1.499v2.993a8.66 8.66 0 0 1 1.085-1.283 6.136 6.136 0 0 1 4.124-2.097v1.642a4.53 4.53 0 0 0-2.928 1.586 7.227 7.227 0 0 0-2.226 5.103v8.483h-1.499V15.503h-.055Zm17.978 0-4.041 5.006 6.433 11.407h-1.925l-5.497-10.207-1.471 1.821v8.386h-1.498V8.47h1.498v12.648l4.549-5.641 1.952.027Z" fill="gray"></path><path d="M116.881 24.124a24.054 24.054 0 0 1-1.553-.938 7.145 7.145 0 0 1-1.072-.841 4.451 4.451 0 0 1-.948-1.38 4.242 4.242 0 0 1-.317-1.668 4.16 4.16 0 0 1 1.265-3.09 4.307 4.307 0 0 1 1.374-.98 4.673 4.673 0 0 1 3.313 0 3.83 3.83 0 0 1 1.374.897c.364.361.657.787.866 1.255.203.46.306.959.302 1.462v.524l-.426.166-1.223.497-.783.317-.11-.855a3.831 3.831 0 0 0-.22-.883c-.084-.193-.2-.37-.344-.524a1.168 1.168 0 0 0-.44-.29 1.723 1.723 0 0 0-.632-.11 1.546 1.546 0 0 0-.618.124 1.547 1.547 0 0 0-.523.359 1.57 1.57 0 0 0-.357.51 1.716 1.716 0 0 0 .357 1.78c.169.154.348.297.536.427l.99.648c.604.329 1.191.688 1.759 1.076.441.288.851.62 1.223.993.491.478.879 1.05 1.141 1.684.262.633.393 1.313.385 1.999a5.256 5.256 0 0 1-.385 2.027 5.053 5.053 0 0 1-1.141 1.697 5.291 5.291 0 0 1-1.69 1.159 5.027 5.027 0 0 1-1.993.386 5.098 5.098 0 0 1-2.007-.386 5.291 5.291 0 0 1-1.69-1.16c-.475-.457-.862-1-1.141-1.6a4.36 4.36 0 0 1-.385-1.806v-.51l.495-.138 1.374-.359.825-.22v.868c-.001.35.064.696.192 1.021.125.304.307.58.537.814.236.23.51.417.81.552.615.24 1.296.24 1.911 0 .3-.135.575-.322.811-.552.233-.233.42-.51.55-.814.118-.313.178-.645.178-.98a2.405 2.405 0 0 0-.178-.951c-.13-.3-.317-.572-.55-.8a6.268 6.268 0 0 0-.674-.538 20.209 20.209 0 0 0-1.209-.814l.041-.055Zm16.301-10.138a9.19 9.19 0 0 1 3.559.676 9.35 9.35 0 0 1 2.997 2.041 9 9 0 0 1 2.749 6.58 9.022 9.022 0 0 1-2.749 6.565 9.324 9.324 0 0 1-4.745 2.547 9.3 9.3 0 0 1-5.357-.505 9.283 9.283 0 0 1-2.997-2.042 9.102 9.102 0 0 1-2.748-6.565 9.118 9.118 0 0 1 2.748-6.58 8.966 8.966 0 0 1 6.529-2.759l.014.042Zm0 2.842a6.588 6.588 0 0 0-2.474.469 6.217 6.217 0 0 0-2.062 1.379 6.577 6.577 0 0 0-1.374 7.048 6.657 6.657 0 0 0 1.374 2.083 6.265 6.265 0 0 0 4.549 1.876 6.329 6.329 0 0 0 2.474-.47 6.208 6.208 0 0 0 2.09-1.379 6.188 6.188 0 0 0 1.374-2.082 6.433 6.433 0 0 0-1.374-7.049 6.15 6.15 0 0 0-4.564-1.89l-.013.015Zm25.729 10.303 1.498.538.838.29-.522.73c-.151.194-.302.4-.467.594l-.522.565a9.328 9.328 0 0 1-4.745 2.547 9.3 9.3 0 0 1-5.357-.505 9.641 9.641 0 0 1-5.031-5.049 9.24 9.24 0 0 1-.537-5.383 9.215 9.215 0 0 1 2.571-4.755 9.093 9.093 0 0 1 2.997-2.027 8.836 8.836 0 0 1 3.546-.69 9.183 9.183 0 0 1 3.546.676 9.405 9.405 0 0 1 3.01 2.041c.178.18.343.373.508.566.166.185.322.378.467.58l.536.716-.838.304-1.484.552-.44.165-.303-.358-.233-.276-.22-.249a6.212 6.212 0 0 0-4.549-1.875 6.47 6.47 0 0 0-2.461.469 6.519 6.519 0 0 0-2.061 1.379 6.384 6.384 0 0 0 0 9.117c.595.591 1.3 1.06 2.075 1.38.78.321 1.617.48 2.46.468a6.329 6.329 0 0 0 2.474-.469 6.242 6.242 0 0 0 2.089-1.379l.234-.248.22-.248.302-.36.426.153-.027.041Zm7.408-11.034v16.082h-2.749v-16.8h2.749V16.097Zm-1.374-6.138c.268 0 .534.052.783.151.249.105.474.26.66.456a2.002 2.002 0 0 1 .467 2.262c-.1.255-.255.486-.453.676a2.165 2.165 0 0 1-.674.455c-.249.099-.515.15-.783.151a2.28 2.28 0 0 1-.798-.151 1.937 1.937 0 0 1-.673-.455 2.014 2.014 0 0 1-.454-.676 1.931 1.931 0 0 1-.164-.8 1.965 1.965 0 0 1 .164-.8c.11-.25.269-.476.468-.662.186-.196.411-.351.659-.456.254-.1.525-.151.798-.151Zm22.279 22.22h-2.075v-2.055a9.06 9.06 0 0 1-2.749 1.807c-2.28.92-4.826.92-7.106 0a9.082 9.082 0 0 1-2.982-2.041 9.475 9.475 0 0 1-2.035-2.993 9.203 9.203 0 0 1-.542-5.384 9.182 9.182 0 0 1 2.577-4.754A8.977 8.977 0 0 1 178.84 14a9.195 9.195 0 0 1 3.56.676 9.009 9.009 0 0 1 2.749 1.793v-1.09h2.749v16.759l-.674.041Zm-2.062-7.53v-2.76a5.997 5.997 0 0 0-.604-1.682 6.387 6.387 0 0 0-1.155-1.545 6.407 6.407 0 0 0-2.075-1.38 6.753 6.753 0 0 0-4.948 0c-.775.32-1.48.789-2.076 1.38a6.44 6.44 0 0 0-1.374 2.083 6.654 6.654 0 0 0-.467 2.483c-.007.85.152 1.693.467 2.482a6.692 6.692 0 0 0 3.491 3.49 6.754 6.754 0 0 0 4.948 0 6.407 6.407 0 0 0 2.075-1.38c.461-.448.85-.964 1.155-1.53a6.031 6.031 0 0 0 .605-1.683l-.042.041ZM194 6.371v25.794h-2.749V5.683H194v.69Z" fill="#F60"></path><path d="M6.955 31.434a44.873 44.873 0 0 1-3.849-9.158 26.889 26.889 0 0 1-1.127-7.848c.096-4.497 2.502-8 5.003-8.842a8 8 0 0 1 5.993.193 23.162 23.162 0 0 1 6.762 3.697A17.368 17.368 0 0 0 14.54 7.2a6.301 6.301 0 0 0-4.59.11c-2.13.745-4.385 3.918-4.48 7.904a23.318 23.318 0 0 0 1.016 6.896 38.156 38.156 0 0 0 3.409 8 43.777 43.777 0 0 0 4.398 6.4h-.165c-1.173.343-2.393.501-3.615.47a51.744 51.744 0 0 1-3.587-5.6l.028.055Zm10.995 8.897c-.85.378-1.722.705-2.611.98-.33.096-.66.193-.99.261a38.713 38.713 0 0 0 5.828 5.063 19.042 19.042 0 0 0 7.215 3.048c2.296.414 3.656.607 5.567-.497a7.516 7.516 0 0 0 2.307-2.191 7.547 7.547 0 0 0 1.198-2.954c.55-2.656.55-5.398 0-8.055.357 4.373-1.375 8.276-3.52 9.407a6.061 6.061 0 0 1-5.14.566 17.575 17.575 0 0 1-6.157-2.759 29.474 29.474 0 0 1-3.724-2.869h.027Z" fill="#989898"></path><path d="M29.866 30.29a32.166 32.166 0 0 1-14.679 10.579c-4.714 1.38-9.51.11-11.531-2.166a8.872 8.872 0 0 1-2.501-6.11 21.3 21.3 0 0 1 .797-7.807 16.291 16.291 0 0 0 0 5.766 7.224 7.224 0 0 0 2.171 4.551c1.69 1.96 5.993 3.131 10.116 1.96a27.74 27.74 0 0 0 12.796-9.187 34.064 34.064 0 0 0 4.865-7.807 25.931 25.931 0 0 1 1.897 4.51 39.37 39.37 0 0 1-4 5.752l.07-.041Zm3.917-16.152c0-.345.11-.676.151-1.02.578-4.539-.632-8.428-3.408-10.415C27.75.717 24.121.773 20.259 2.221a19.383 19.383 0 0 1 7.38-2.152 8.122 8.122 0 0 1 6.323 1.586c2.515 1.752 4.522 6.58 3.848 11.766a26.407 26.407 0 0 1-1.25 5.2l-.248-.455a34.79 34.79 0 0 0-2.529-4.028Z" fill="url(#b)"></path><path d="M30.196 10.524a32.144 32.144 0 0 1 8.618 15.945c.825 4.869-1.072 9.49-3.574 11.214a8.8 8.8 0 0 1-6.35 1.724 21.432 21.432 0 0 1-7.627-1.766c1.841.591 3.772.853 5.703.773a7.062 7.062 0 0 0 4.77-1.6c2.089-1.49 3.862-5.655 3.147-9.945a27.74 27.74 0 0 0-7.477-13.876 29.716 29.716 0 0 0-13.675-8.662C9.305 3.2 5.306 3.917 3.01 6.428.714 8.938.26 12.566 1.25 16.593A19.649 19.649 0 0 1 .028 8.966a8.302 8.302 0 0 1 2.364-6.083C4.44.593 9.47-.8 14.5.51a34.428 34.428 0 0 1 15.696 10.014Z" fill="url(#c)"></path><path d="M51.706 37.752h-3.519v3.696h3.519V40.18l.852.166v.607c.04.341-.048.686-.247.965-.268.201-.603.29-.935.248H48.6a1.274 1.274 0 0 1-.949-.262 1.383 1.383 0 0 1-.247-.951v-2.69a.983.983 0 0 1 .69-1.2.973.973 0 0 1 .506 0h2.748c.332-.042.667.047.935.248.196.276.284.615.248.952v.483l-.853.165v-1.158h.028Zm51.032 2.138v-.731h2.213v.73h-2.213Zm12.013-2.138h-3.519v3.696h3.519V40.18l.852.166v.607c.04.341-.048.686-.248.965a1.368 1.368 0 0 1-.934.248h-2.845a1.277 1.277 0 0 1-.949-.262 1.383 1.383 0 0 1-.247-.951v-2.69a.98.98 0 0 1 .69-1.2.975.975 0 0 1 .506 0h2.845c.331-.033.663.055.934.248.197.276.285.615.248.952v.483l-.852.165v-1.158Zm39.679 2.138v-.731h2.144v.73h-2.144Zm12.37-2.138h-3.986v3.696h3.986v-1.49h-2.061v-.661h2.913v1.655a1.289 1.289 0 0 1-.261.951 1.264 1.264 0 0 1-.934.263h-3.299a.986.986 0 0 1-1.194-.707 1.004 1.004 0 0 1-.002-.507v-2.69c-.033-.339.06-.678.261-.952a1.29 1.29 0 0 1 .935-.248h3.299c.331-.033.663.055.934.248.2.254.294.575.261.897v.124l-.852.11v-.744.055ZM55.472 41.448h4.206v-3.696h-4.206v3.696Zm-.852-3.186a.983.983 0 0 1 .69-1.2.973.973 0 0 1 .505 0h3.519a1.37 1.37 0 0 1 .934.248c.197.276.285.615.248.952v2.69c.037.337-.051.675-.247.951a1.261 1.261 0 0 1-.935.263h-3.519a.972.972 0 0 1-1.203-.702.983.983 0 0 1 .008-.512v-2.69Zm8.48 3.904v-5.104h.618l3.807 3.407.275.276.303.372V37.103h.783v5.104h-.48l-3.904-3.559-.083-.069a2.273 2.273 0 0 1-.44-.496c.015.165.015.331 0 .496v3.627l-.88-.04Zm8.246 0v-5.104h.619l3.807 3.407.275.276.302.372c0-.165 0-.345-.068-.524-.07-.18 0-.414 0-.73v-2.76h.783v5.104h-.481l-3.903-3.559-.083-.069a2.273 2.273 0 0 1-.44-.496c.015.165.015.331 0 .496v3.627l-.81-.04Zm8.247 0v-5.104h4.893v.676H80.43v1.38h2.488v.703h-2.488v1.627h4.124v.704l-4.962.014Zm11.27-4.414h-3.532v3.696h3.532V40.18l.839.166v.607c.032.339-.05.679-.234.965a1.37 1.37 0 0 1-.935.248h-2.859a1.37 1.37 0 0 1-.948-.262 1.383 1.383 0 0 1-.247-.951v-2.69a1.383 1.383 0 0 1 .247-.952 1.37 1.37 0 0 1 .948-.248h2.86a1.37 1.37 0 0 1 .934.248c.191.278.274.617.234.952v.483l-.839.165v-1.158Zm5.058 0v4.413h-.852v-4.413h-2.323v-.69h5.498v.69H95.92Zm25.551 0h-2.777v1.779h2.914a.427.427 0 0 0 .55-.51v-.745a.652.652 0 0 0-.11-.414.631.631 0 0 0-.44-.11h-.137Zm-3.766 4.441v-5.13h4.123c.295-.033.591.05.825.233a.972.972 0 0 1 .261.745v1.145a1.05 1.05 0 0 1-.261.759c-.238.176-.531.26-.825.234h-.742l2.323 1.986h-1.265l-2.062-1.986h-1.388v1.986l-.989.028Zm7.518 0v-5.13h4.893v.675h-4.124v1.38h2.474v.703h-2.474v1.627h4.124v.704l-4.893.041Zm7.807-1.917h2.748l-1.374-2.607-1.374 2.607Zm-1.842 1.917 2.749-5.103h.907l2.831 5.103h-.935l-.645-1.255h-3.45L132 42.193h-.811Zm9.415-4.414h2.336v-.717h-5.498v.69h2.323v4.413h.921v-4.413l-.082.027Zm3.766 4.414v-5.13h4.892v.675h-4.054v1.38h2.488v.703h-2.488v1.627h4.123v.704l-4.961.041Zm29.412-4.441h-2.927v1.779h2.927a.558.558 0 0 0 .426-.11.54.54 0 0 0 .124-.4v-.745a.568.568 0 0 0-.124-.414.588.588 0 0 0-.426-.11Zm-3.779 4.441v-5.13h4.123c.295-.033.59.05.824.233a.973.973 0 0 1 .248.745v1.145a1.01 1.01 0 0 1-.248.759c-.237.176-.53.26-.824.234h-.756l2.323 1.986h-1.251l-2.075-1.986h-1.499v1.986l-.865.028Zm8.246-.717h4.206v-3.724h-4.206v3.724Zm-.852-3.186a.978.978 0 0 1 1.196-1.2h3.518c.331-.034.664.054.935.248.196.276.284.615.247.952v2.69c.037.336-.051.675-.247.951a1.266 1.266 0 0 1-.935.262h-3.518a.976.976 0 0 1-1.196-1.214v-2.69Zm9.319 3.903-1.842-5.103h.852l1.374 4.055 1.691-4.083h.508l1.457 4.055 1.375-4.055h.783l-1.855 5.104h-.633l-1.374-3.863-1.457 3.863-.879.027Z" fill="gray"></path></g><defs><linearGradient id="b" x1="96.938" y1="-42.841" x2="3.195" y2="34.294" gradientUnits="userSpaceOnUse"><stop stop-color="#000002"></stop><stop offset=".19" stop-color="#171719"></stop><stop offset=".59" stop-color="#535354"></stop><stop offset="1" stop-color="#969697"></stop></linearGradient><linearGradient id="c" x1="-.068" y1="-1.6" x2="40.675" y2="38.628" gradientUnits="userSpaceOnUse"><stop stop-color="#ED1C24"></stop><stop offset=".54" stop-color="#EDE331"></stop><stop offset="1" stop-color="#ED1C24"></stop></linearGradient><clipPath id="a"><path fill="#fff" d="M0 0h194v50H0z"></path></clipPath></defs></svg> 