<svg width="29" height="29" viewBox="0 0 29 29" fill="none" xmlns="http://www.w3.org/2000/svg">
<rect x="0.600098" y="0.5" width="28" height="28" rx="14" fill="#3E4550"/>
<path d="M14.6008 12.4999C13.4958 12.4999 12.6007 13.3953 12.6007 14.4999C12.6007 15.6048 13.4962 16.4999 14.6008 16.4999C15.7056 16.4999 16.6008 15.6045 16.6008 14.4999C16.6008 13.3951 15.7054 12.4999 14.6008 12.4999ZM14.6008 11.1666C16.441 11.1666 17.9341 12.658 17.9341 14.4999C17.9341 16.3403 16.4427 17.8333 14.6008 17.8333C12.7604 17.8333 11.2674 16.3419 11.2674 14.4999C11.2674 12.6596 12.7588 11.1666 14.6008 11.1666ZM18.9341 10.9994C18.9341 11.4594 18.5602 11.8327 18.1008 11.8327C17.6407 11.8327 17.2674 11.4589 17.2674 10.9994C17.2674 10.5399 17.6412 10.1666 18.1008 10.1666C18.5596 10.166 18.9341 10.5399 18.9341 10.9994ZM14.6008 9.16659C12.9511 9.16659 12.6822 9.17095 11.9149 9.20512C11.3922 9.22966 11.0418 9.29997 10.7162 9.42637C10.4269 9.53858 10.2182 9.67257 9.99578 9.89495C9.77254 10.1182 9.63879 10.3263 9.52703 10.6158C9.40034 10.9421 9.33005 11.292 9.30595 11.814C9.27145 12.5501 9.26742 12.8073 9.26742 14.4999C9.26742 16.1496 9.27178 16.4185 9.30594 17.1857C9.3305 17.7082 9.4009 18.0591 9.52699 18.3839C9.6395 18.6737 9.77376 18.8829 9.99507 19.1042C10.2192 19.328 10.428 19.4622 10.7147 19.5729C11.0442 19.7003 11.3944 19.7707 11.9148 19.7947C12.6509 19.8292 12.9081 19.8333 14.6008 19.8333C16.2504 19.8333 16.5193 19.8289 17.2865 19.7947C17.8079 19.7703 18.1591 19.6997 18.4848 19.5737C18.7737 19.4615 18.9836 19.3267 19.205 19.1056C19.4292 18.8811 19.5631 18.6729 19.6739 18.3855C19.801 18.0571 19.8715 17.7065 19.8956 17.1859C19.93 16.4498 19.9341 16.1925 19.9341 14.4999C19.9341 12.8503 19.9297 12.5814 19.8956 11.8142C19.871 11.2926 19.8004 10.9409 19.6743 10.6154C19.5624 10.3268 19.4279 10.1175 19.2057 9.89495C18.9821 9.67135 18.7745 9.53787 18.4848 9.4262C18.1588 9.29961 17.8084 9.22923 17.2866 9.20513C16.5506 9.17062 16.2934 9.16659 14.6008 9.16659ZM14.6008 7.83325C16.4118 7.83325 16.638 7.83992 17.3491 7.87325C18.0585 7.90603 18.5424 8.01825 18.9674 8.18325C19.4068 8.3527 19.778 8.58159 20.1485 8.95214C20.5185 9.3227 20.7474 9.69492 20.9174 10.1333C21.0818 10.5577 21.1941 11.0421 21.2274 11.7516C21.2591 12.4627 21.2674 12.6888 21.2674 14.4999C21.2674 16.3111 21.2608 16.5371 21.2274 17.2483C21.1946 17.9577 21.0818 18.4416 20.9174 18.8666C20.748 19.3061 20.5185 19.6771 20.1485 20.0477C19.778 20.4177 19.4052 20.6466 18.9674 20.8166C18.5424 20.9811 18.0585 21.0933 17.3491 21.1266C16.638 21.1583 16.4118 21.1666 14.6008 21.1666C12.7896 21.1666 12.5635 21.1599 11.8524 21.1266C11.143 21.0938 10.6596 20.9811 10.2341 20.8166C9.79519 20.6471 9.42352 20.4177 9.05297 20.0477C8.68242 19.6771 8.45408 19.3044 8.28408 18.8666C8.11908 18.4416 8.00742 17.9577 7.97408 17.2483C7.94242 16.5371 7.93408 16.3111 7.93408 14.4999C7.93408 12.6888 7.94075 12.4627 7.97408 11.7516C8.00686 11.0416 8.11908 10.5583 8.28408 10.1333C8.45352 9.69437 8.68242 9.3227 9.05297 8.95214C9.42352 8.58159 9.79575 8.35325 10.2341 8.18325C10.6591 8.01825 11.1424 7.90659 11.8524 7.87325C12.5635 7.84159 12.7896 7.83325 14.6008 7.83325Z" fill="white"/>
</svg>
