<svg width="29" height="29" viewBox="0 0 29 29" fill="none" xmlns="http://www.w3.org/2000/svg">
<rect x="0.800293" y="0.5" width="28" height="28" rx="14" fill="#3E4550"/>
<path d="M11.4272 9.8332C11.427 10.3761 11.0976 10.8646 10.5944 11.0684C10.0913 11.2722 9.51479 11.1506 9.13681 10.761C8.75883 10.3713 8.65484 9.79135 8.87388 9.29463C9.09292 8.79791 9.59124 8.48358 10.1339 8.49987C10.8546 8.5215 11.4275 9.11216 11.4272 9.8332ZM11.4672 12.1532H8.80053V20.4999H11.4672V12.1532ZM15.6805 12.1532H13.0272V20.4999H15.6539V16.1199C15.6539 13.6799 18.8339 13.4532 18.8339 16.1199V20.4999H21.4672V15.2132C21.4672 11.0999 16.7605 11.2532 15.6539 13.2732L15.6805 12.1532Z" fill="white"/>
</svg>
