<svg width="29" height="29" viewBox="0 0 29 29" fill="none" xmlns="http://www.w3.org/2000/svg">
<rect x="0.400391" y="0.5" width="28" height="28" rx="14" fill="#3E4550"/>
<g clip-path="url(#clip0_12_16)">
<path d="M18.551 11.2741C19.1265 11.75 20.7051 13.0553 20.4479 13.9716C20.3289 14.3831 19.8563 14.5149 19.5058 14.6435C18.6988 14.9361 17.8693 15.1676 17.0269 15.338C16.3453 15.4762 14.8889 15.7784 15.159 14.5727C15.265 14.1065 15.6412 13.7111 15.9435 13.3606C16.564 12.6308 17.1974 11.8592 17.9465 11.2612C18.0076 11.2129 18.0815 11.2001 18.1458 11.2097C18.2713 11.1584 18.4224 11.1649 18.551 11.2741Z" fill="white"/>
<path d="M17.702 20.8937C17.1972 20.4854 16.8403 19.8456 16.5317 19.2862C16.2294 18.746 15.7536 18.0322 15.6732 17.4054C15.5093 16.1161 17.3772 16.891 17.9142 17.0774C18.6279 17.3282 20.5409 17.6047 20.3287 18.7203C20.1519 19.6302 19.0555 20.7394 18.1393 20.8809C18.1297 20.8841 18.1168 20.8809 18.1039 20.8809C18.1007 20.8841 18.0975 20.8873 18.0943 20.8905C18.0686 20.9033 18.0397 20.9194 18.0107 20.9323C17.9013 20.9902 17.7953 20.9677 17.702 20.8937Z" fill="white"/>
<path d="M13.5258 17.5756C14.5418 17.1545 14.635 18.2894 14.6285 18.9774C14.6189 19.7973 14.5932 20.6203 14.5321 21.4369C14.5096 21.7681 14.5225 22.1668 14.2074 22.3758C13.8184 22.633 13.0693 22.4304 12.6673 22.305C12.6545 22.2986 12.6416 22.2922 12.6288 22.289C11.7832 22.1411 10.7512 21.7521 10.6515 20.9708C10.6418 20.8808 10.6772 20.8004 10.7319 20.7393C10.7576 20.6911 10.7833 20.6461 10.8123 20.6043C10.9377 20.4307 11.0823 20.2764 11.227 20.1188C11.4714 19.7555 11.735 19.4051 12.0147 19.0675C12.4198 18.5788 12.9181 17.8264 13.5258 17.5756Z" fill="white"/>
<path d="M13.6736 14.0519C12.1914 12.8334 10.7478 10.9462 10.0019 9.20039C9.43276 7.87254 10.8796 7.06235 11.9952 6.69584C13.4999 6.20069 14.0979 6.63152 14.249 8.13621C14.3744 9.43187 14.4322 10.7372 14.4226 12.0393C14.4193 12.5891 14.5737 13.4765 14.2522 13.9716C14.3036 14.1742 13.9982 14.3188 13.8246 14.1806C13.7988 14.1613 13.7732 14.1356 13.7442 14.113C13.7185 14.097 13.696 14.0777 13.6736 14.0519Z" fill="white"/>
<path d="M13.5129 15.9391C13.6319 16.4664 13.2589 16.6786 12.8217 16.8779C12.0437 17.2284 11.227 17.5081 10.4072 17.7396C9.93129 17.8714 9.2015 18.1865 8.74176 17.836C8.39454 17.5724 8.37203 17.0226 8.3399 16.6239C8.26919 15.7334 8.40422 13.6082 9.63878 13.5182C10.2432 13.4764 10.9988 14.0165 11.4939 14.2994C12.153 14.6789 12.8604 15.1129 13.3522 15.7077C13.4261 15.7494 13.4872 15.8234 13.5129 15.9391Z" fill="white"/>
</g>
<defs>
<clipPath id="clip0_12_16">
<rect width="16" height="16" fill="white" transform="translate(6.40039 6.5)"/>
</clipPath>
</defs>
</svg>
