<svg width="28" height="29" viewBox="0 0 28 29" fill="none" xmlns="http://www.w3.org/2000/svg">
<rect y="0.5" width="28" height="28" rx="14" fill="#3E4550"/>
<g clip-path="url(#clip0_12_17)">
<path d="M18.5354 12.1619C18.9775 12.3785 19.4745 12.5001 19.9999 12.5001C20.2283 12.5001 20.4512 12.4771 20.6666 12.4334V19.8334C20.6666 20.2016 20.3681 20.5001 19.9999 20.5001H7.99992C7.63173 20.5001 7.33325 20.2016 7.33325 19.8334V9.16675C7.33325 8.79856 7.63173 8.50008 7.99992 8.50008H16.7333C16.6895 8.71549 16.6666 8.93843 16.6666 9.16675C16.6666 9.99123 16.9659 10.7458 17.4619 11.3277L14.0403 14.2887L9.76473 10.6585L8.90177 11.6749L14.0487 16.0448L18.5354 12.1619ZM19.9999 11.1667C18.8953 11.1667 17.9999 10.2713 17.9999 9.16675C17.9999 8.06218 18.8953 7.16675 19.9999 7.16675C21.1045 7.16675 21.9999 8.06218 21.9999 9.16675C21.9999 10.2713 21.1045 11.1667 19.9999 11.1667Z" fill="white"/>
</g>
<defs>
<clipPath id="clip0_12_17">
<rect width="16" height="16" fill="white" transform="translate(6 6.5)"/>
</clipPath>
</defs>
</svg>
